<?xml version="1.0" encoding="utf-8"?>
<!-- Generator: Adobe Illustrator 26.0.1, SVG Export Plug-In . SVG Version: 6.00 Build 0)  -->
<svg version="1.1" id="Слой_1" xmlns="http://www.w3.org/2000/svg" xmlns:xlink="http://www.w3.org/1999/xlink" x="0px" y="0px"
	 viewBox="0 0 383.1 326.9" style="enable-background:new 0 0 383.1 326.9;" xml:space="preserve">
<g>
	<path style="fill:#1D3D57;" d="M383.1,125.2c-2.7,4.3-7,3.8-11.2,3.8c-6.7-0.1-6.7,0-6.7,6.7c0,60.8,0,121.7,0,182.5
		c0,6.9-1.7,8.7-8.5,8.7c-6.4,0-12.7,0-19.1,0c-6.4,0-8.3-1.8-8.3-8.2c0-12.1-0.1-24.2,0.1-36.4c0-2.6-0.4-3.6-3.3-3.6
		c-89.7,0.1-179.3,0.1-269,0c-2.7,0-3.2,0.8-3.2,3.3c0.1,12.4,0.1,24.7,0.1,37.1c0,5.6-2,7.6-7.7,7.6c-6.7,0-13.5,0-20.2,0
		c-6.1,0-8-1.9-8-8.1c0-62,0-123.9,0.1-185.9c0-3.2-0.6-4.4-4-4c-2.6,0.3-5.2,0.1-7.8,0c-3.8-0.2-6.1-2.4-6.1-6.1
		C0,113,0,103.1,0.1,93.2c0-4,2.5-6.1,6.8-6.2c5.1-0.1,5.1-0.1,5.1-5.4c0-9.5,0-19,0-28.5c0-6.3,1.8-8.1,8.3-8.1c55,0,110,0,165,0.1
		c2.6,0,4.1-0.8,5.8-2.9c22.5-27.8,51.7-39.1,86.3-30.5c34.4,8.5,55.1,31.7,62.4,66.6c0.6,2.8,0,6.9,1.7,8.1
		c1.9,1.5,5.7,0.5,8.7,0.5c8.1,0,16.2,0.2,24.3-0.1c3.7-0.1,6.5,0.8,8.6,3.8C383.1,102.2,383.1,113.7,383.1,125.2z M191.3,248.9
		c44.8,0,89.5,0,134.3,0.1c3.2,0,3.8-0.9,3.8-3.9c-0.2-9.5-0.2-19,0-28.5c0.1-3.2-0.9-3.8-3.9-3.8c-41.9,0.1-83.8,0.1-125.7,0.1
		c-6.3,0-8.2-1.8-8.2-8.3c0-24.1-0.1-48.2,0.1-72.3c0-2.9-0.8-3.4-3.5-3.4c-43.6,0.1-87.3,0.1-130.9,0c-2.9,0-3.4,0.8-3.4,3.5
		c0.1,37.6,0.1,75.2,0,112.8c0,3.2,0.9,3.8,3.9,3.8C102.2,248.9,146.7,248.9,191.3,248.9z M191.2,117c58.5,0,117,0,175.5,0
		c0.7,0,1.5-0.1,2.2,0c1.8,0.2,2.4-0.4,2.3-2.3c-0.1-3.9-0.3-7.8,0-11.6c0.3-3.4-0.8-4.2-4.2-4.2C250.1,99,133.1,99,16.1,99
		c-0.6,0-1.3,0.1-1.9,0c-1.8-0.3-2.4,0.4-2.3,2.3c0.1,4,0.3,8,0,12c-0.2,3.1,0.7,3.8,3.8,3.8C74.2,116.9,132.7,117,191.2,117z
		 M266.4,129c-19.8,0-39.7,0.1-59.5-0.1c-2.8,0-3.5,0.7-3.4,3.5c0.1,21.7,0.1,43.5,0,65.2c0,2.8,0.7,3.4,3.5,3.4
		c39.6-0.1,79.3-0.1,119,0c2.8,0,3.4-0.7,3.4-3.5c-0.1-21.7-0.1-43.5,0-65.2c0-2.8-0.7-3.5-3.5-3.4C306.1,129,286.2,129,266.4,129z
		 M119.5,87c31,0,62.1,0,93.1,0.1c2.4,0,3.1-0.6,3.1-3c0-2.4-0.6-3.1-3.1-3.1c-12.2,0.1-24.4,0.1-36.6,0.1c-5.5,0-8.2-2-8.3-5.9
		c-0.1-4,2.8-6.1,8.4-6.1c10.1,0,20.2,0,30.3,0c9.5,0,9.4,0,9.2-9.6c0-1.9-0.5-2.5-2.5-2.5c-36.6,0.1-73.3,0-109.9,0
		c-1.5,0-2.4,0.2-3,1.9c-4.3,11-12.6,16.2-24.4,16.1c-14.5-0.1-28.9,0-43.4,0c-8.5,0-8.4,0-8.5,8.4c-0.1,2.8,0.5,3.7,3.6,3.7
		C58.1,86.9,88.8,87,119.5,87z M310.7,87c0.2-2.7-0.5-5-1-7.3c-0.9-3.5-2.2-6.9-3.7-10.1c-13.4-28.3-49.2-39.2-75.9-23
		c-1.2,0.7-2.7,1.1-2.7,3.4c0.2,11.2,0.1,22.5,0.2,33.7c0,1.1-1.1,3.3,1.2,3.2c2.1-0.2,5.1,1.9,6.3-1.9c1.2-3.9,3.5-7.1,6.6-9.8
		c12.4-11.1,31.7-6.5,38.1,9c0.5,1.3,0.4,2.9,2.7,2.9C291.8,86.9,301.3,87,310.7,87z M30,221.9c0,28.2,0,56.5,0,84.7
		c0,8.3,0,8.1,8.2,8.3c3.1,0.1,3.8-0.8,3.8-3.8c-0.1-57.8-0.1-115.7-0.1-173.5c0-8.7,0-8.5-8.6-8.7c-2.8-0.1-3.4,0.7-3.4,3.5
		C30,162.2,30,192.1,30,221.9z M353.2,221.9c0-28.2,0-56.5,0-84.7c0-8.3,0-8.1-8.2-8.4c-3.2-0.1-3.8,0.8-3.8,3.9
		c0.1,57.8,0.1,115.7,0,173.5c0,8.7,0,8.5,8.6,8.7c2.8,0.1,3.4-0.7,3.4-3.5C353.2,281.7,353.2,251.8,353.2,221.9z M191.6,260.9
		c-44.8,0-89.5,0-134.3-0.1c-2.8,0-3.4,0.6-3.5,3.4c-0.1,3.5,2.1,2.6,3.9,2.6c89.3,0,178.6,0,267.9,0c0.5,0,1-0.1,1.5,0
		c1.8,0.3,2.2-0.5,2.3-2.3c0.3-3.2-0.7-3.8-3.8-3.8C280.9,261,236.2,260.9,191.6,260.9z M204.8,44.6c3.3-0.1,6.5,1.4,9.5-1.2
		c15.1-13,32.5-18.1,52.3-15.7c28.1,3.4,52.6,27.6,55.8,55.8c0.4,3.8,2.3,3.7,4.9,3.5c3.5-0.3,1-2.6,1.1-3.9
		c0.2-1.5-0.3-3.2-0.7-4.8c-6.8-28.1-23.8-47-51.6-54.6C248.6,16.1,224.6,24.1,204.8,44.6z M88.1,57c-21.1,0-41.4,0-61.7-0.1
		c-2.5,0-2.5,1.2-2.4,2.9c0.1,1.4-0.7,3.2,2.1,3.2c17.3-0.1,34.6,0,52-0.1C82.1,62.9,85.3,61,88.1,57z M247.6,87c3.4,0,6.6,0,9.7,0
		c3.3,0,6.6,0,10.2,0C262.3,79,252.2,79.1,247.6,87z"/>
	<path style="fill:#1D3D57;" d="M287.4,164.6c0-5.5,0-11,0-16.5c0-4.9,2.2-7.1,7-7.1c5.4,0,10.7-0.1,16.1,0c4.6,0.1,6.8,2.3,6.8,7
		c0,11.4,0,22.7,0,34.1c0,4.7-2.2,6.9-6.8,6.9c-5.5,0.1-11,0.1-16.4,0c-4.4-0.1-6.6-2.3-6.6-6.8
		C287.3,176.3,287.4,170.4,287.4,164.6z M302.7,153.1c-1.9-0.3-3.8-0.5-3.4,2.6c0.2,1.8-0.4,3.9,2.7,3.4c1.8-0.3,3.9,0.4,3.4-2.7
		C305.1,154.6,306,152.1,302.7,153.1z M302.7,171c-2.1-0.3-3.8-0.4-3.5,2.6c0.2,1.9-0.3,3.8,2.8,3.4c1.9-0.2,3.8,0.3,3.3-2.8
		C305.1,172.4,305.8,170.2,302.7,171z"/>
	<path style="fill:#1D3D57;" d="M245.3,153c-7.5,0-14.9,0-22.4,0c-4.6,0-7.4-2.4-7.3-6.1c0.1-3.6,2.7-5.9,7.2-5.9
		c15.2,0,30.4,0,45.5,0c4.4,0,7.1,2.3,7.1,5.9c0,3.7-2.6,6-7,6.1C260.7,153,253,153,245.3,153z"/>
	<path style="fill:#1D3D57;" d="M245.5,159c7.5,0,14.9,0,22.4,0c4.8,0,7.4,2.1,7.5,5.9c0.1,3.8-2.6,6.1-7.3,6.1
		c-15.1,0-30.1,0-45.2,0c-4.6,0-7.4-2.3-7.3-6.1c0.1-3.7,2.8-5.9,7.5-5.9C230.5,158.9,238,159,245.5,159z"/>
	<path style="fill:#1D3D57;" d="M245.4,188.9c-7.6,0-15.2,0-22.8,0c-4.4,0-7-2.3-7.1-5.9c0-3.6,2.7-6,7-6c15.3,0,30.6,0,45.9,0
		c4.3,0,7,2.5,6.9,6.2c-0.1,3.5-2.7,5.8-6.8,5.8C260.8,189,253.1,188.9,245.4,188.9z"/>
</g>
</svg>
