<?xml version="1.0" encoding="utf-8"?>
<!-- Generator: Adobe Illustrator 26.0.1, SVG Export Plug-In . SVG Version: 6.00 Build 0)  -->
<svg version="1.1" id="Слой_1" xmlns="http://www.w3.org/2000/svg" xmlns:xlink="http://www.w3.org/1999/xlink" x="0px" y="0px"
	 viewBox="0 0 383.9 381.3" style="enable-background:new 0 0 383.9 381.3;" xml:space="preserve">
<g>
	<path style="fill:#1D3D57;" d="M383.9,223.7c0,19.7,0,39.4,0,59.1c-2.6,0.8-5.3,1.4-7.8,2.3c-8.2,3.1-13.1,9.1-14.8,17.7
		c-1.4,6.8,0.5,12.8,3.8,18.6c1.2,2.1,1.2,3.5-0.8,5.4c-12.4,12.1-24.6,24.4-36.8,36.7c-1.9,1.9-3.3,2-5.4,0.7
		c-4.1-2.4-8.5-4.2-13.4-4.3c-12.8-0.4-22.5,8.5-25.3,23.2c-19.7,0-39.5,0-59.2,0c-1-6.1-3.3-11.7-7.7-16.1
		c-10.5-10.5-27.8-9.1-36.4,3c-3.8,5.3-8.8,9.1-14.9,11.3c-2,0.7-4.1,1.2-6.2,1.8c-44.7,0-89.5,0-134.2,0c-0.2-1-1.1-0.8-1.8-1
		C11.8,378.7,4.4,371.4,1,360.2c-0.2-0.6,0-1.6-1-1.8c0-72.1,0-144.2,0-216.2c2-3.5,4-7,6.7-10.1c12.6-13.9,24.9-27.9,37.4-41.9
		c3.2-3.6,5.1-7.6,5.4-12.4c0.2-2.7-0.3-4.1-3.5-3.8c-3,0.3-6,0.1-9,0.1c-6.9-0.2-12.1-5.2-12.3-12c-0.1-4.2-0.1-8.5,0-12.7
		c0.2-6.8,4.9-11.7,11.7-12.2c3.4-0.2,6.8-0.2,10.1-0.1c2.3,0.1,3-0.5,2.9-2.8c-0.2-6.7-0.1-13.5-0.1-20.2C49.5,4.9,54.3,0,63.6,0
		c19.5,0,39,0,58.5,0c9.4,0,14.2,4.9,14.2,14.3c0,6.7,0.1,13.5,0,20.2c0,1.9,0.5,2.7,2.5,2.6c3.4-0.1,6.8-0.1,10.1,0
		c6.9,0.4,11.7,5,12.1,11.8c0.3,4.5,0.3,9,0,13.5c-0.5,6.9-5.7,11.6-12.7,11.7c-3.2,0-6.5,0.1-9.7,0c-1.9-0.1-2.3,0.5-2.3,2.3
		c-0.1,5.3,1.7,9.7,5.2,13.6c11.6,13,23.3,26.1,34.8,39.1c3.3,3.7,7.1,7.1,8.5,12.1c0.2,0.8,0.8,1.2,1.5,1.6
		c5.8,3.1,11.7,4.8,18.3,3.3c10.4-2.4,16.2-9.3,18.8-19.1c0.7-2.7,2-3.6,4.9-3.6c16.4,0.2,32.7,0.3,49.1,0c4.5-0.1,6.4,1.2,7.6,5.6
		c2.5,9.5,9,15.3,18.6,17.3c5.7,1.2,11.1-0.1,16.3-2.7c5.2-2.6,5.3-2.6,9.5,1.6c11,11,22,22.2,33.2,33c3.1,3,3.5,5.1,1.5,9
		C355.4,204,364.9,221.1,383.9,223.7z M12.4,264.2c0,28.4,0,56.9,0,85.3c0,14.1,7.1,21.2,21.1,21.3c39.6,0,79.2,0,118.8,0
		c1.4,0,2.8,0,4.1-0.1c7.4-0.8,12.4-4.7,15.4-11.4c0.9-2.1,0.7-3.5-1-5.2c-9.2-9-18.2-18.2-27.4-27.1c-1.9-1.8-2.2-3.2-0.8-5.4
		c9.8-15.6,2-33.9-15.7-37.9c-0.2-0.1-0.5-0.2-0.7-0.2c-2.1-0.3-2.6-1.6-2.6-3.7c0.1-17.6,0.1-35.2,0-52.7c0-2.1,0.5-3.2,2.6-3.7
		c1.7-0.4,3.3-1,4.9-1.7c8.7-3.3,13.8-9.6,15.4-18.6c1-5.7-0.2-11.2-3.3-16.1c-2.2-3.5-1.5-5.6,1.4-8.4c8.9-8.5,17.6-17.4,26.3-26.1
		c0.9-0.9,2.6-1.7,2-3.3c-0.7-1.6-2.4-0.7-3.7-0.7c-49.2-0.1-98.4,0-147.7,0c-10.2,0-10.1,0-9.5,10.2c0.1,1.8,0.7,2.3,2.4,2.3
		c4-0.1,8-0.1,12,0c8.7,0.2,15.8,6.1,17.5,14.6c0.6,2.7,0.8,5.4,1.2,8.1c0.1,0.8,0,2,1.2,1.9c5.8-0.5,12.1,1.8,17.3-2.7
		c9.2-7.9,19.7-11.4,31.8-9.8c0.5,0.1,1,0,1.5,0c3.2,0.3,5.5-1.1,7.1-3.8c0.8-1.4,1.8-2.7,2.7-4.1c5.7-8.5,5.6-8.5,13.9-2.1
		c1.3,1,1.4,1.6,0.5,2.9c-2,2.7-3.9,5.5-5.6,8.4c-4.7,8.2-11.8,12.2-21.1,11.1c-9-1-16.6,1.5-23.4,7.2c-4.6,3.8-9.9,5.4-16,5.2
		c-8.6-0.3-8.4-0.1-7.2,8.6c0.5,4.1,2.5,6.4,6.3,7.8c5.5,2,10.8,4.4,16.3,6.5c5.6,2.1,9.3,6,11.5,11.5c2.2,5.5,4.5,11.1,6.7,16.6
		c1.1,2.7,3.5,6.2,2.7,8.2c-1,2.4-5.4,2.5-8.1,3.9c-2,1-2.9,0.7-3.8-1.5c-2.7-7.1-5.8-14-8.4-21.1c-1.3-3.5-3.4-5.5-6.8-6.8
		c-5.3-1.9-10.4-4.1-15.6-6.1c-8.1-3.1-12.1-9.1-13-17.5c-1-9.5-2.3-19-3.6-28.5c-0.6-4.3-2.7-6.1-7-6.2c-3.1-0.1-6.3,0.2-9.4-0.1
		c-3.1-0.3-3.7,0.9-3.6,3.7C12.4,205.8,12.4,235,12.4,264.2z M351.1,185.6c0.2-1.6-0.9-2.1-1.7-2.9c-8.2-8.2-16.5-16.4-24.6-24.6
		c-1.5-1.5-2.7-1.8-4.8-1.1c-18,6.1-36.3-1.6-44.7-18.7c-0.9-1.7-1.7-2.3-3.6-2.3c-11.9,0.1-23.7,0.1-35.6,0c-1.9,0-2.8,0.6-3.6,2.3
		c-8.5,17.3-26.7,24.8-45,18.6c-1.8-0.6-2.9-0.5-4.2,0.9c-8.3,8.4-16.7,16.8-25.2,25.1c-1.4,1.3-1.5,2.4-0.9,4.2
		c6.2,18.2-1.4,36.4-18.7,44.9c-1.7,0.8-2.3,1.8-2.3,3.6c0.1,11.8,0.1,23.7,0,35.5c0,1.9,0.7,2.7,2.4,3.6
		c17.2,8.4,24.8,26.7,18.6,44.9c-0.6,1.9-0.4,2.9,1,4.2c8.4,8.3,16.8,16.7,25.2,25.1c1.2,1.2,2.2,1.5,3.9,0.9
		c18.8-6.3,36.1,0.8,45.2,18.6c0.9,1.8,2,2.2,3.8,2.2c11.7-0.1,23.5-0.1,35.2,0c2,0,3-0.6,3.9-2.5c8.2-16.8,26.8-24.7,44.4-18.6
		c2.5,0.9,3.8,0.4,5.5-1.3c7.8-7.9,15.6-15.8,23.6-23.5c1.9-1.9,2.5-3.3,1.5-6.1c-5.8-17.6,2.1-36.2,18.7-43.9
		c2.2-1,2.5-2.2,2.5-4.3c-0.1-11.3-0.1-22.7,0-34c0-2.4-0.6-3.6-2.9-4.8c-16.6-8.1-24.2-26.8-18.3-44.2
		C350.5,186.8,350.8,186.1,351.1,185.6z M20.2,135.7c48.8,0,96.7,0,145.2,0c-1.1-1.3-1.8-2.1-2.6-2.9
		c-10.1-11.4-20.2-22.8-30.4-34.1c-5.6-6.2-8.7-13.3-8.7-21.7c0-2.2-0.4-2.9-2.8-2.9c-18.7,0.1-37.5,0.1-56.2,0
		c-2.3,0-2.9,0.6-2.9,2.9c0,8.5-3.2,15.7-8.9,22c-9.6,10.6-19.1,21.4-28.7,32.1C23.1,132.5,21.8,133.9,20.2,135.7z M92.9,12.4
		c-9.4,0-18.7,0.1-28.1-0.1c-2.4,0-2.9,0.7-2.9,3c0.1,6.2,0.2,12.5,0,18.7c-0.1,2.4,0.6,3.2,3.1,3.2c18.6-0.1,37.2-0.1,55.8,0
		c2.6,0,3.1-0.9,3-3.2c-0.1-6.2-0.2-12.5,0-18.7c0.1-2.3-0.5-3-2.9-2.9C111.6,12.5,102.2,12.4,92.9,12.4z M93,49.4
		c-15.9,0-31.7,0-47.6,0c-8.2,0-8,0-8.3,8.3c-0.1,3.6,1.2,4.2,4.4,4.2c32.6-0.1,65.2-0.1,97.8-0.1c9.4,0,9.2,0,9.4-9.2
		c0.1-3-1.1-3.3-3.6-3.3C127.7,49.5,110.3,49.4,93,49.4z"/>
	<path style="fill:#1D3D57;" d="M383.9,50.1c-1.4,0.7-1,2.2-1.2,3.3c-5.2,19.8-21.8,32.9-42.3,33.1c-8,0.1-16,0.1-24,0
		c-2.1,0-3.4,0.5-4.3,2.6c-1.9,4.3-4.1,8.5-6.3,12.7c-3,5.9-7.9,9.3-14.6,9.4c-6.8,0.1-11.8-3.3-14.9-9.4c-2-4-4.2-7.9-5.9-12
		c-1.1-2.7-2.7-3.2-5.4-3.2c-9.5,0-19,0.6-28.4-0.4c-21.4-2.2-37.9-20.5-38.3-42.3c-0.4-21.1,15.5-39.9,36.5-43.2
		c3-0.5,6-0.6,8.9-0.6c31.3,0,62.7,0,94,0c24.6,0,40.6,13,45.7,37c0,0.2,0.4,0.3,0.5,0.4C383.9,41.7,383.9,45.9,383.9,50.1z
		 M291.2,12.4c-15.9,0-31.7,0-47.6,0c-3,0-6,0-8.9,0.7c-15.7,3.8-25.8,18-23.9,34c1.8,15.2,15.1,26.8,31,26.9
		c10.5,0.1,21,0.1,31.5,0c2.3,0,3.5,0.7,4.5,2.8c2.9,6.2,6.1,12.2,9.1,18.4c0.9,1.7,1.8,3.3,4,3.4c2.4,0.1,3.5-1.6,4.4-3.4
		c3-6.1,6.2-12.2,9.1-18.4c1-2.1,2.1-2.9,4.5-2.8c10.7,0.1,21.5,0.1,32.2,0c9-0.1,16.6-3.5,22.4-10.2c8.6-9.9,10.5-21.2,5.2-33.1
		c-5.4-12.2-15.4-18.3-28.8-18.3C323.6,12.3,307.4,12.4,291.2,12.4z"/>
	<path style="fill:#1D3D57;" d="M346.7,253.2c0.2,51-41.4,92.7-92.7,92.8c-51.2,0.1-92.8-41.4-92.9-92.5
		c-0.1-51.2,41.4-92.6,92.7-92.7C305,160.7,346.5,201.9,346.7,253.2z M334.3,253.4c0-44.2-36.2-80.4-80.5-80.4
		c-44.2,0-80.5,36.2-80.6,80.3c0,44.2,36.2,80.4,80.5,80.4C298.1,333.7,334.3,297.6,334.3,253.4z"/>
	<path style="fill:#1D3D57;" d="M260.1,43.4c-0.1,10.1-8.7,18.5-18.8,18.4c-10.2-0.1-18.6-8.7-18.4-18.7
		c0.2-10.2,8.6-18.4,18.8-18.3C251.8,24.8,260.2,33.3,260.1,43.4z M247.5,43.1c-0.1-3.4-2.8-6-6.2-5.9c-3.5,0.1-6,2.8-5.9,6.2
		c0.1,3.4,2.8,6.1,6.2,6C245,49.3,247.6,46.6,247.5,43.1z"/>
	<path style="fill:#1D3D57;" d="M290.8,24.7c10.2-0.1,18.7,8.2,18.8,18.3c0.1,10.1-8.2,18.6-18.4,18.7c-10.1,0.1-18.7-8.2-18.8-18.4
		C272.3,33.3,280.7,24.8,290.8,24.7z M297.1,43.3c0-3.5-2.5-6.1-6-6.2c-3.5,0-6.2,2.6-6.2,6c0,3.4,2.6,6.1,6.1,6.2
		C294.3,49.4,297,46.8,297.1,43.3z"/>
	<path style="fill:#1D3D57;" d="M340.5,24.7c10.2,0,18.6,8.3,18.6,18.5c0,10.2-8.4,18.6-18.5,18.6c-10.2,0-18.6-8.4-18.6-18.5
		C321.9,33.1,330.3,24.7,340.5,24.7z M346.6,43.2c0-3.4-2.7-6.1-6.2-6c-3.5,0-6.1,2.7-6.1,6.1c0,3.4,2.8,6.1,6.2,6.1
		C344,49.4,346.6,46.7,346.6,43.2z"/>
	<path style="fill:#1D3D57;" d="M235.3,228.6c0-8.1-0.1-16.2,0-24.3c0.1-10.7,7.9-18.7,18.2-18.8c10.6-0.1,18.7,7.7,18.8,18.5
		c0.2,16.5,0.2,32.9,0,49.4c-0.1,10.7-8.1,18.5-18.5,18.5c-10.5,0-18.4-8.1-18.5-18.9C235.3,244.8,235.3,236.7,235.3,228.6z
		 M260.1,228.6c0-7.7,0-15.4,0-23.2c0-4.7-2.5-7.7-6.3-7.7c-3.8,0-6.2,3-6.2,7.8c0,15.4,0,30.9,0,46.3c0,4.8,2.5,7.7,6.3,7.7
		c3.8,0,6.2-3,6.2-7.8C260.1,244,260.1,236.3,260.1,228.6z"/>
	<path style="fill:#1D3D57;" d="M272.3,302.6c0.1,10.3-8.1,18.5-18.4,18.6c-10.3,0.1-18.6-8.1-18.6-18.4c0-10.3,8.1-18.6,18.4-18.6
		C264,284.2,272.3,292.4,272.3,302.6z M254,308.9c3.3-0.1,6.1-3.1,6.1-6.3c-0.1-3.3-3.1-6.1-6.4-6c-3.3,0.1-6.1,3-6,6.3
		C247.7,306.2,250.7,309,254,308.9z"/>
</g>
</svg>
