<?xml version="1.0" encoding="utf-8"?>
<!-- Generator: Adobe Illustrator 26.0.1, SVG Export Plug-In . SVG Version: 6.00 Build 0)  -->
<svg version="1.1" id="Слой_1" xmlns="http://www.w3.org/2000/svg" xmlns:xlink="http://www.w3.org/1999/xlink" x="0px" y="0px"
	 viewBox="0 0 383.4 478.4" style="enable-background:new 0 0 383.4 478.4;" xml:space="preserve">
<g>
	<path style="fill:#1D3D57;" d="M376.9-0.3H4.7C0.6,3.3,0,7.9,0,13.1c0.1,118.7,0.1,237.4,0.1,356.2c0,1.1,0,2.2,0,3.3
		c0.1,7.2,3,10.1,10.3,10.2c3.1,0.1,6.3,0.3,9.3-0.1c3.9-0.4,4.6,1.1,4.5,4.7c-0.1,26.6-0.1,53.3-0.1,79.9c0,8.7,2.5,11.2,11,11.2
		c104.4,0,208.8,0,313.2,0c8.3,0,10.8-2.5,10.8-10.9c0-24,0-48,0-72c0-4.2-1.8-9.7,0.9-12.1c2.3-2.1,7.7-0.7,11.7-0.7
		c8.8-0.1,11.5-2.7,11.5-11.4c0-120.1,0-240.3,0-360.4C383.4,5.8,382.1,1.6,376.9-0.3z M338.9,462.6c-49.2-0.1-98.5-0.1-147.7-0.1
		c-48.8,0-97.5-0.1-146.3,0.1c-3.8,0-4.9-0.7-4.9-4.7c0.2-23.7,0.2-47.4,0-71c0-3.1,0.5-4.2,4-4.2c98.5,0.1,196.9,0.1,295.4,0
		c3.6,0,3.9,1.3,3.9,4.3c-0.1,23.8-0.2,47.7,0,71.5C343.4,462.2,342.1,462.6,338.9,462.6z M361.8,366.8
		c-113.4-0.1-226.9-0.1-340.3,0c-4.7,0-5.5-1.4-5.5-5.7c0.1-113.4,0.1-226.8,0-340.3c0-4.1,0.8-5.4,5.2-5.4
		c56.9,0.2,113.8,0.1,170.6,0.1c56.9,0,113.8,0.1,170.6-0.1c4.3,0,5,1.2,5,5.2c-0.1,113.6-0.1,227.2,0,340.8
		C367.5,366.1,366.1,366.8,361.8,366.8z"/>
	<path style="fill:#1D3D57;" d="M191.2,143.3c-48.9,0-97.9,0-146.8,0c-10.1,0-12.4-2.3-12.4-12.3c0-29.3,0-58.6,0-87.9
		c0-9,2.6-11.6,11.7-11.6c98.6,0,197.3,0,295.9,0c9.1,0,11.7,2.6,11.7,11.6c0,29.6,0,59.2,0,88.8c0,8.7-2.7,11.4-11.5,11.4
		C290.3,143.3,240.8,143.3,191.2,143.3z M191.2,127.4c46.6,0,93.2,0,139.7,0.1c3.3,0,4.6-0.5,4.6-4.2c-0.2-23.8-0.1-47.7,0-71.5
		c0-3-0.5-4.3-4-4.3c-93.2,0.1-186.3,0.1-279.5,0c-3.4,0-4.1,1-4.1,4.2c0.1,23.7,0.2,47.4,0,71c0,4,1.1,4.8,4.9,4.8
		C99,127.3,145.1,127.4,191.2,127.4z"/>
	<path style="fill:#1D3D57;" d="M191.2,231c-41.5,0-82.9-0.1-124.4,0c-12.8,0-23.3-4.3-30-15.4c-13.2-22.2,2.3-48.2,28.8-48.5
		c17.9-0.2,35.8,0,53.8,0c65.8,0,131.6,0,197.3,0c17,0,28.9,8.6,33.3,23.8c5.4,18.4-8.3,38.2-27.5,39.7c-2.8,0.2-5.6,0.3-8.4,0.3
		C273.2,231,232.2,231,191.2,231z M191.4,215.1c41.3,0,82.6,0,123.8,0c2,0,4.1,0,6.1-0.2c6.9-0.7,12.5-5.9,13.7-12.7
		c2-11-5.7-19-18.4-19c-83.2,0-166.4,0-249.6,0c-2.2,0-4.4,0.1-6.5,0.6c-8.1,1.7-13.3,9.1-12.2,17.3c1.1,8.8,7.6,14,17.8,14
		C107.9,215.1,149.6,215.1,191.4,215.1z"/>
	<path style="fill:#1D3D57;" d="M183.7,303.1c0-14.6,0.1-29.3-0.1-43.9c0-3.1,0.5-4.6,4-4.2c3.8,0.4,8.9-1.2,11.3,0.8
		c2.5,2.1,0.8,7.3,0.8,11.2c0.1,26.3,0,52.6,0.1,79c0,3.7-0.5,5.1-4.7,5c-11.4-0.3-11.4-0.1-11.4-11.4
		C183.7,327.4,183.7,315.2,183.7,303.1z"/>
	<path style="fill:#1D3D57;" d="M151.7,303.1c0-14.6,0.1-29.3-0.1-43.9c-0.1-3.6,1-4.6,4.4-4.3c3.7,0.4,8.5-1.1,10.8,0.8
		c2.5,2,0.8,7,0.8,10.6c0.1,26.6,0,53.3,0.1,79.9c0,3.7-1,4.7-4.6,4.6c-11.4-0.2-11.4,0-11.4-11.3
		C151.7,327.4,151.7,315.3,151.7,303.1z"/>
	<path style="fill:#1D3D57;" d="M215.7,302.8c0-14.6,0.1-29.3-0.1-43.9c0-2.8,0.4-4.4,3.7-3.9c4,0.5,9.3-1.7,11.6,0.9
		c2,2.2,0.7,7.4,0.7,11.3c0,26.3,0,52.6,0.1,79c0,3.4-0.5,4.9-4.5,4.8c-11.6-0.2-11.6,0-11.6-11.6
		C215.7,327.1,215.7,314.9,215.7,302.8z"/>
	<path style="fill:#1D3D57;" d="M56.1,302.6c0-14.6,0.1-29.3-0.1-43.9c0-3.1,0.8-4.1,3.8-3.8c3.9,0.3,9-1.3,11.3,0.7
		c2.6,2.3,0.8,7.6,0.9,11.6c0.1,26.5,0,52.9,0.1,79.4c0,3.5-0.8,4.6-4.3,4.3c-3.7-0.4-8.7,1.3-10.9-0.6c-2.5-2.2-0.8-7.3-0.8-11.2
		C56,326.9,56.1,314.8,56.1,302.6z"/>
	<path style="fill:#1D3D57;" d="M103.9,303.1c0,14.6-0.1,29.3,0.1,43.9c0,3.1-0.9,4-3.9,3.8c-3.9-0.3-8.9,1.2-11.3-0.7
		c-2.5-2-0.8-7.3-0.8-11.1c-0.1-26.5,0-52.9-0.1-79.4c0-3.3,0.4-5.2,4.4-4.7c3.7,0.5,8.6-1.2,10.8,0.7c2.5,2.2,0.7,7.3,0.8,11.1
		C103.9,278.9,103.9,291,103.9,303.1z"/>
	<path style="fill:#1D3D57;" d="M135.8,303.1c0,14.7-0.1,29.3,0.1,43.9c0,2.7-0.4,4.1-3.5,3.7c-4-0.4-9.2,1.6-11.7-0.8
		c-2.5-2.4-0.8-7.7-0.8-11.7c-0.1-26.3,0-52.7-0.1-79c0-3.4,0.6-4.9,4.3-4.4c3.8,0.5,8.9-1.7,11.2,0.9c1.9,2.1,0.6,7.1,0.6,10.8
		C135.8,278.8,135.8,290.9,135.8,303.1z"/>
	<path style="fill:#1D3D57;" d="M247.6,302.6c0-14.5,0.1-29-0.1-43.5c-0.1-3.6,1-4.6,4.4-4.2c3.7,0.4,8.7-1.2,10.8,0.7
		c2.6,2.2,0.8,7.3,0.8,11.1c0.1,26.5,0,53,0.1,79.5c0,3.8-1.1,4.9-4.7,4.5c-3.7-0.4-8.5,1.6-10.7-0.8c-1.8-2.1-0.7-6.8-0.7-10.4
		C247.6,327.3,247.6,314.9,247.6,302.6z"/>
	<path style="fill:#1D3D57;" d="M279.5,303.1c0-14.8,0.1-29.6-0.1-44.3c0-3,0.7-4.2,3.8-3.8c4,0.5,9.3-1.7,11.6,0.9
		c2,2.2,0.6,7.4,0.6,11.3c0,26.5-0.1,52.9,0.1,79.4c0,3.4-0.7,4.8-4.3,4.3c-3.8-0.5-8.9,1.7-11.1-0.9c-1.9-2.2-0.6-7.1-0.6-10.8
		C279.5,327.1,279.5,315.1,279.5,303.1z"/>
	<path style="fill:#1D3D57;" d="M327.3,303.1c0,14.6-0.1,29.3,0.1,43.9c0,3.2-0.9,4-3.9,3.8c-3.9-0.3-8.9,1.3-11.3-0.6
		c-2.5-2-0.7-7.3-0.8-11.2c-0.1-26.6,0-53.2-0.1-79.8c0-3.6,1-4.6,4.4-4.2c3.7,0.4,8.6-1.2,10.8,0.7c2.6,2.2,0.8,7.3,0.8,11.1
		C327.4,278.9,327.3,291,327.3,303.1z"/>
	<path style="fill:#1D3D57;" d="M135.8,422.8c0-7.3-0.1-14.6,0-21.9c0.1-7.2,3-10.2,10.2-10.3c9.2-0.1,18.4-0.1,27.5,0
		c7.2,0,10.1,2.9,10.1,10.2c0.1,14.5,0.1,28.9,0,43.4c0,7.5-2.7,10.1-10.1,10.2c-9.3,0.1-18.7,0.1-28,0c-6.8-0.1-9.6-2.9-9.7-9.7
		C135.7,437.4,135.8,430.1,135.8,422.8z M167.7,422.7c0-1.4,0-2.8,0-4.2c0-12.6,0-12.5-12.9-12.1c-2.5,0.1-3.2,0.8-3.1,3.2
		c0.1,5.4,0,10.9,0,16.3c0,13,0,12.9,13,12.5c2.5-0.1,3.2-0.8,3.1-3.2C167.6,431.1,167.7,426.9,167.7,422.7z"/>
	<path style="fill:#1D3D57;" d="M247.6,422.8c0,7.2,0.1,14.3,0,21.5c-0.1,7.3-2.9,10.1-10.2,10.2c-9.3,0.1-18.7,0.1-28,0
		c-6.8-0.1-9.6-2.8-9.7-9.7c-0.1-14.8-0.1-29.6,0-44.3c0-7,3-9.8,10.1-9.8c9.2-0.1,18.4-0.1,27.5,0c7.2,0,10.2,3,10.2,10.2
		C247.7,408.2,247.6,415.5,247.6,422.8z M215.7,422.2c0,1.4-0.1,2.8,0,4.2c0.2,3.8-1.7,8.9,0.7,11.2c2.5,2.5,7.7,0.4,11.6,0.8
		c2.8,0.3,3.9-0.6,3.7-3.6c-0.2-5.4-0.1-10.9-0.1-16.3c0-12.3,0-12.3-12.4-12.1c-0.3,0-0.6,0-0.9,0c-2-0.3-2.7,0.6-2.7,2.6
		C215.8,413.5,215.7,417.9,215.7,422.2z"/>
	<path style="fill:#1D3D57;" d="M119.8,422.3c0,7.6,0.1,15.2,0,22.9c-0.1,6.3-2.8,9.1-9.1,9.2c-9.8,0.1-19.6,0.1-29.4,0
		c-6.4-0.1-9.2-3.1-9.2-9.6C72,430,72,415.2,72,400.4c0-6.7,3-9.7,9.7-9.8c9.5-0.1,19-0.1,28.5,0c6.7,0.1,9.6,3.1,9.6,9.8
		C119.8,407.7,119.8,415,119.8,422.3z M103.9,422.6c0-1.2,0-2.5,0-3.7c0-12.9,0-12.8-12.9-12.4c-2.5,0.1-3.2,0.7-3.1,3.2
		c0.2,5.4,0.1,10.9,0.1,16.3c0,13.2,0,13.2,13.1,12.6c2.2-0.1,2.9-0.7,2.9-2.9C103.7,431.3,103.9,427,103.9,422.6z"/>
	<path style="fill:#1D3D57;" d="M263.6,422.7c0-7.5-0.1-14.9,0-22.4c0.1-6.5,2.9-9.5,9.3-9.6c9.6-0.1,19.3-0.1,28.9,0
		c6.4,0.1,9.5,3.1,9.5,9.5c0.1,14.9,0.1,29.9,0,44.8c0,6.5-2.9,9.4-9.4,9.5c-9.8,0.1-19.6,0.1-29.4,0c-6.2-0.1-8.9-3-9-9.3
		C263.5,437.6,263.6,430.1,263.6,422.7z M295.5,422.8c0-1.4,0-2.8,0-4.2c-0.1-3.9,1.3-9.2-0.7-11.2c-2.6-2.6-7.9-0.5-12-0.9
		c-2.8-0.3-3.4,0.9-3.3,3.4c0.2,5.4,0,10.9,0.1,16.3c0.1,4-1.8,9.6,0.8,11.5c2.7,2,8,0.6,12.1,0.7c0.2,0,0.3,0,0.5,0
		c2.1,0.3,2.6-0.7,2.6-2.6C295.4,431.5,295.5,427.1,295.5,422.8z"/>
	<path style="fill:#1D3D57;" d="M143.9,95.4c-1.6,0-3.1,0.1-4.7,0c-3.7-0.3-9.3,1.7-10.6-0.7c-1.8-3.6-0.6-8.7-0.8-13.2
		c-0.1-2.2,1.4-2,2.8-2c8.7,0,17.4,0.1,26.1,0c2.2,0,2.9,0.6,3,2.9c0.7,13.1,0.8,13.1-12.3,13.1C146.4,95.4,145.2,95.4,143.9,95.4z"
		/>
	<path style="fill:#1D3D57;" d="M192.2,79.4c4.2,0,8.4,0.1,12.6,0c2.3-0.1,3,0.7,2.9,2.9c-0.2,4.2,1.3,9.4-0.7,12.2
		c-1.9,2.6-7.5,0.7-11.5,0.8c-5.6,0.1-11.2-0.1-16.8,0.1c-2.2,0.1-2.8-0.6-2.9-2.8c-0.6-13.2-0.6-13.2,12.3-13.2
		C189.4,79.4,190.8,79.4,192.2,79.4z"/>
	<path style="fill:#1D3D57;" d="M239.6,95.4c-1.6,0-3.1,0.1-4.7,0c-3.7-0.3-9.3,1.7-10.6-0.7c-1.9-3.6-0.7-8.7-0.8-13.2
		c-0.1-2.2,1.4-2,2.8-2c8.7,0,17.4,0.1,26.1,0c2.2,0,2.9,0.6,3,2.9c0.8,13.2,0.8,13.1-12.2,13.1C242.1,95.4,240.8,95.4,239.6,95.4z"
		/>
	<path style="fill:#1D3D57;" d="M191.2,207.2c-40.8,0-81.6-0.1-122.5,0.1c-3.9,0-5.2-0.9-4.8-4.8c0.4-3.5-1.1-8.3,0.7-10.4
		c2.2-2.4,7-0.8,10.7-0.8c79.6,0,159.2,0,238.9-0.1c4.2,0,5.5,0.9,5.3,5.3c-0.3,10.8-0.1,10.8-11,10.8
		C269.4,207.2,230.3,207.2,191.2,207.2z"/>
</g>
</svg>
