<?xml version="1.0" encoding="utf-8"?>
<!-- Generator: Adobe Illustrator 26.0.1, SVG Export Plug-In . SVG Version: 6.00 Build 0)  -->
<svg version="1.1" id="Слой_1" xmlns="http://www.w3.org/2000/svg" xmlns:xlink="http://www.w3.org/1999/xlink" x="0px" y="0px"
	 viewBox="0 0 393.7 346.3" style="enable-background:new 0 0 393.7 346.3;" xml:space="preserve">
<g>
	<path style="fill:#07324D;" d="M26.1,257.2c-2.3,0-4.4,0-6.5,0c-2.2,0.1-2.2-1.7-2.6-3c-6.3-20.4-9.3-41.3-8.4-62.6
		c3.1-75.8,47.6-139.6,117.8-168.8c22.7-9.4,46.5-14,71-13.8c87.9,0.7,157.6,58.2,180.6,133.7c11.2,36.9,11.2,73.8-0.1,110.8
		c-1,3.2-5.8,5.3-8.5,3.7c-1.3-0.8-0.3-1.7,0-2.5c3-10.2,5.4-20.4,7-30.9c5.2-34.6,0.6-67.9-14-99.6c-26.6-57.8-71.8-93-134.2-104.2
		c-57-10.3-108.2,4.9-151.5,43.4c-42.2,37.5-61.4,85.5-60.3,141.6c0.3,17,3.8,33.6,9,49.8C25.7,255.4,25.8,256.1,26.1,257.2z"/>
	<path style="fill:#042F4B;" d="M157.1,330c0-1.8,0.1-3.6,0-5.4c-0.1-3.1,1.1-4.9,4.4-4.5c2.5,0.3,3.4-0.6,4-3.1
		c1.7-7.6,3.3-15.3,5.7-22.8c3.6-10.7,11.4-16.9,22.7-17.4c8.8-0.4,17.7-0.1,26.6-0.3c3.4-0.1,4.3,1.5,4.3,4.5
		c-0.1,11.6,0.1,23.2-0.1,34.8c0,3.1,0.5,4.7,4.1,4.2c3-0.4,4.2,1.2,4.3,4.2c0.5,9.8,0.5,9.9-9.2,9.9c-19.7,0-39.4,0.3-59.1-0.1
		c-6.9-0.1-13.7,0.2-20.6,0.3c-4.1,0-6.9-1.1-7.8-5.2c-0.9-4.3-3.3-5.6-7.6-5.3c-5.7,0.4-11.5,0.2-17.2,0c-2.4-0.1-3.5,0.8-4.4,3
		c-2.9,7.5-3,7.5-11,7.5c-11.6,0-11.2,0.7-6.5-9.8c6.3-14.2,12.7-28.4,18.8-42.7c1.7-3.8,4-5.6,8.3-5.2c3.6,0.3,7.2,0.3,10.8,0
		c3.9-0.3,5.9,1.7,7.3,5c6.6,15,13.3,30,19.9,45c0.5,1.2,1.1,2.4,1.7,3.5C156.7,330.1,156.9,330,157.1,330z M183,320
		c7.3,0,14-0.1,20.7,0c2.1,0,2.8-0.7,2.7-2.8c-0.1-6,0-11.9,0-17.9c0-10.1,0-10.1-10.3-8.7c-3.7,0.5-6.3,2.3-7.3,6
		C187,304.2,185.1,311.9,183,320z M121.5,292.8c-1.3,3-2.3,4.9-3,7c-1.2,3.4-3.6,6.4-3.7,10.2c3.7,0.1,7.4,0.1,11.1,0.3
		c1.8,0.1,2.5-0.3,1.7-2.3C125.8,303.4,123.9,298.7,121.5,292.8z"/>
	<path style="fill:#4D778A;" d="M158.5,246c-6.4,0.4-11.7-1.2-16.1-5.1c-4.5-4-7-9.1-7-15.1c-0.1-29.4-0.1-58.8,0-88.2
		c0-10.1,6.8-18.8,16.7-20.8c12.5-2.6,25.2-4.9,38-6.2c15.9-1.6,31.2,1.7,46.6,4.8c17.4,3.5,23.7,11.7,23.4,29.7
		c-0.5,26-0.1,52.1-0.2,78.1c0,12.1-5.8,20-16.2,22.5c-0.6,0.1-1.2,0.3-1.8,0.4c-5.2,0.6-5.2,0.6-3.3,5.8c2,5.4,2,5.4-3.7,5.4
		c-25.6,0-51.1,0-76.7,0.1c-3.1,0-4.2-0.5-2.6-3.7C156.6,251.3,157.4,248.9,158.5,246z M253.5,182.1c0-14.3,0-28.7,0-43
		c0-7.6-3.9-13.7-11-15.6c-12.8-3.3-25.6-6.4-38.9-7c-16.1-0.7-31.7,3.1-47.4,5.8c-10.3,1.8-14.7,7.3-14.7,17.9
		c-0.1,28-0.1,56.1-0.1,84.1c0,9.8,5.8,15.6,15.7,15.6c26.9,0.1,53.9,0.1,80.8,0c9.9,0,15.6-5.7,15.6-15.5
		C253.6,210.2,253.5,196.2,253.5,182.1z M196.8,251.3C196.8,251.3,196.8,251.3,196.8,251.3c10.4,0,20.7,0.1,31.1,0
		c1.1,0,2.9,0.8,3-1.1c0.1-1.4-0.4-3.1-1.8-3.9c-0.8-0.4-1.9-0.3-2.9-0.3c-19,0-37.9,0-56.9,0c-0.6,0-1.2,0-1.9,0
		c-2.6,0.2-3.4,2.3-3.4,4.2c0,1.9,2.2,1,3.3,1C177.1,251.3,187,251.3,196.8,251.3z"/>
	<path style="fill:#042F4B;" d="M272.3,335.7c-6.7-0.3-12.6-0.9-18.2-3.4c-11.6-5.4-17.3-16-16.2-30.5c0.9-12.3,8.4-21.6,20.1-25.1
		c7.8-2.3,15.6-2.7,23.6-0.9c19.1,4.2,25.1,18.3,23.2,34.4c-1.7,14-11.4,23-25.4,24.8C276.9,335.3,274.2,335.5,272.3,335.7z
		 M286.5,304.2c-0.1-0.7-0.3-2.3-0.5-3.9c-1.3-7.6-6.2-11.8-13.9-11.9c-7.9-0.1-13.1,4-14.6,11.5c-0.7,3.7-0.7,7.4,0.1,11.1
		c1.7,7.7,9.1,12.4,16.9,10.9C282.3,320.5,286.5,314.5,286.5,304.2z"/>
	<path style="fill:#07324D;" d="M315.3,305c0-8,0.1-15.9,0-23.9c0-3.3,1.1-4.8,4.6-4.6c3.2,0.2,6.5,0.1,9.7,0
		c2.8-0.1,3.9,1.2,3.9,3.8c0,4.9,0.1,9.7,0,14.6c-0.1,2.7,0.5,3.8,3.4,3.7c5.7-0.2,11.5-0.2,17.2,0c2.4,0.1,3.3-0.7,3.2-3.2
		c-0.2-4.5-0.1-9,0-13.4c0-5.1,0.3-5.3,5.2-5.4c2.7,0,5.5,0.2,8.2,0c3.7-0.3,4.8,1.5,4.7,4.9c-0.1,8.8,0,17.7,0,26.5
		c0,7.1-0.1,14.2,0,21.3c0.1,3.5-1.4,5.1-4.9,4.9c-2.7-0.1-5.5,0-8.2,0c-4.4-0.1-5-0.6-5.1-4.9c-0.1-4.4-0.1-8.7,0-13.1
		c0.1-2.5-0.5-3.6-3.3-3.5c-5.9,0.2-11.7,0.1-17.6,0c-2.3-0.1-3.1,0.8-3,3c0.1,4.6,0,9.2,0.1,13.8c0.1,3.3-1.4,4.8-4.7,4.7
		c-2.9-0.1-5.7-0.1-8.6,0c-3.5,0.2-5-1.3-4.9-4.8C315.4,321.2,315.3,313.1,315.3,305z"/>
	<path style="fill:#042F4B;" d="M24.1,305.1c0-7.8,0-15.7,0-23.5c0-4.5,0.5-5,4.8-5c10.5,0,20.9,0,31.4,0.1c4.3,0,8.4,1.1,12.2,2.9
		c7.6,3.6,11.7,9.6,11.6,18c-0.1,8.6-4.5,14.5-12.4,17.9c-6.2,2.7-12.8,2.7-19.4,3c-3.2,0.1-7.3-1.4-9.4,0.6c-2.1,2-0.6,6.1-0.7,9.3
		c-0.1,5-0.5,5.5-5.6,5.5c-2.5,0-5,0-7.5,0c-4.5-0.1-5-0.5-5-4.9c0-8,0-15.9,0-23.9C24.2,305.1,24.1,305.1,24.1,305.1z M51,305
		c2.5,0,5,0.2,7.5-0.1c4.2-0.5,6.9-3.7,6.9-7.6c0-3.7-2.5-6.6-6.6-7.4c-3.1-0.7-6.2-0.5-9.3-0.5c-7.1,0-7.1,0-7.1,7
		C42.3,305.2,42.3,305.2,51,305z"/>
	<path style="fill:#B5C3CA;" d="M339.7,197.1c0.5,20.5-3.6,39-10.6,56.9c-0.2,0.6-0.5,1.1-0.7,1.7c-0.7,1.5-2.1,1.9-3.4,1.4
		c-1.7-0.7-0.3-1.9,0.1-2.8c5.7-13.8,9.5-28.1,10.7-42.9c1.4-17.8,0.3-35.5-4.7-52.8c-7-24.6-19.4-46-37.7-63.9
		c-20.2-19.7-44.3-32.3-72.2-37.2c-28.8-5.1-56.5-1.1-82.9,11.4c-20,9.5-36.5,23.5-50.2,41c-15.4,19.7-24.4,42.1-28.2,66.6
		c-4.1,26.7-0.5,52.5,9.7,77.4c0.4,1,2.1,2.3,0.4,3.1c-1.6,0.8-3.1-0.1-3.8-1.9c-4.3-10.6-7.5-21.6-9.4-32.9
		c-1.4-8.2-2.2-16.6-2.1-24.8c0.2-13.1,1.8-26,5.3-38.6c6.2-22.6,17.1-42.6,32.8-60c21.6-24,48.3-39.2,80-44.6
		c41.1-7.1,78.7,2.4,111.6,28.2c28.3,22.2,45.7,51.5,52.8,86.8C339.1,178.6,340.3,188.4,339.7,197.1z"/>
	<path style="fill:#4D778A;" d="M197.7,181.1c-12.6,0-25.2,0-37.8,0c-7.9,0-11.2-3.3-11.2-11.1c0-7.9,0-15.7,0-23.6
		c0-7,3.2-10.6,10.1-10.6c26.2-0.1,52.4,0,78.6,0.1c6,0,9.4,3.6,9.4,9.7c0.1,8.6,0.1,17.2,0,25.8c-0.1,6.3-3.5,9.6-9.9,9.6
		C223.9,181.1,210.8,181.1,197.7,181.1z M197.8,142c-12.6,0-25.2,0-37.8,0c-4.3,0-5.1,0.8-5.2,4.9c-0.1,7.7,0,15.4,0,23.2
		c0,3.5,1.4,4.9,4.9,4.9c25.3-0.1,50.6,0,75.9,0c4.2,0,5.1-0.8,5.1-5c0-7.6,0-15.2,0-22.8c0-4.4-0.8-5.2-5.2-5.2
		C223,141.9,210.4,142,197.8,142z"/>
	<path style="fill:#4D778A;" d="M243.8,211.6c0,9-6.6,15.7-15.5,15.7c-8.8,0-15.7-6.8-15.8-15.5c-0.1-8.9,6.9-15.9,15.8-15.9
		C237.2,195.9,243.8,202.7,243.8,211.6z M219,211.5c-0.1,5.3,4.1,9.6,9.3,9.6c4.9,0,9.2-4.3,9.4-9.3c0.1-5.2-4.2-9.5-9.4-9.5
		C223,202.3,219,206.3,219,211.5z"/>
	<path style="fill:#4D778A;" d="M167,227.3c-8.9,0-15.7-6.6-15.8-15.4c-0.1-9,6.8-16,15.7-16c8.8,0,15.5,6.8,15.6,15.7
		C182.5,220.5,175.8,227.3,167,227.3z M176.1,211.8c0.1-5.2-3.8-9.4-9-9.5c-5.4-0.1-9.5,3.9-9.5,9.3c0,5.2,4.1,9.4,9.1,9.4
		C171.8,221.1,176,216.9,176.1,211.8z"/>
	<path style="fill:#4D778A;" d="M198.2,122.7c5.1,0,10.2,0,15.3,0c2.1,0,4.2,0.3,4.2,3.1c0.1,2.7-2,3.3-4.1,3.3
		c-10.6,0.1-21.2,0.1-31.8,0c-2,0-3.9-0.6-3.9-3.1c0-2.7,1.9-3.2,4.1-3.2C187.5,122.7,192.8,122.7,198.2,122.7z"/>
</g>
</svg>
