<?xml version="1.0" encoding="utf-8"?>
<!-- Generator: Adobe Illustrator 26.0.1, SVG Export Plug-In . SVG Version: 6.00 Build 0)  -->
<svg version="1.1" id="Слой_1" xmlns="http://www.w3.org/2000/svg" xmlns:xlink="http://www.w3.org/1999/xlink" x="0px" y="0px"
	 viewBox="0 0 614.5 495.5" style="enable-background:new 0 0 614.5 495.5;" xml:space="preserve">
<g>
	<path style="fill:#012D49;" d="M315.7,7.6c45.5,2.5,87.3,16.1,125.4,41c30.7,20.1,55.8,45.9,75.4,77c15.6,24.7,26.4,51.4,32.7,80
		c5.1,23.3,6.8,46.9,5.2,70.7c-1.3,20.5-5.1,40.5-11.4,60c-0.6,1.8-1.4,2.3-3.2,2.2c-2.8-0.2-5.6,0-8.5,0
		c20.3-63,17.5-124.5-11.1-184.3c-20.6-43-51.7-76.9-92.6-101.6C345.2,2.8,243.1,7.4,166.8,59.7c-44.9,30.8-76.2,72-93.4,123.7
		C56.2,235,57.1,286.7,74.2,338.5c-3.4,0-6.6-0.1-9.9,0c-1.4,0-1.5-1-1.7-1.9c-2.5-7.8-4.6-15.7-6.4-23.8c-4.9-23-6.7-46.3-5.2-69.8
		c2.7-41,14.6-79.2,36-114.4c20.5-33.7,47.5-61.2,80.8-82.4c26.2-16.7,54.6-28,85-34.2c12.8-2.6,25.8-4.2,39-4.6
		c0.6,0,1.3,0.1,1.8-0.3c4.3,0,8.6,0,12.9,0C309.6,7.9,312.7,7.1,315.7,7.6z"/>
	<path style="fill:#9BB4CA;" d="M315.7,7.6c-3.1,0-6.1,0.4-9.2-0.4c3,0,6.1,0,9.1,0C315.7,7.4,315.7,7.5,315.7,7.6z"/>
	<path style="fill:#012D49;" d="M249,437.4c0-3.4,0-6.8,0-10.2c0-3.1,1.4-4.5,4.5-4.7c1.8-0.1,4.1,0.8,5.3-0.4c1.1-1,0.9-3.3,1.4-5
		c2.5-9.6,4.2-19.3,7.3-28.7c4.4-13.7,13.9-21.6,28.2-23.5c7.6-1,15.3-0.4,23-0.5c5.2-0.1,10.4,0,15.6,0c3.6,0,4.9,1.3,4.9,4.9
		c0,16.9,0,33.9,0,50.8c0,2,0.5,2.7,2.5,2.4c1.3-0.2,2.7-0.1,4.1,0c3,0.1,4.4,1.4,4.4,4.5c0.1,3.3,0.1,6.6,0,9.8
		c-0.1,3-1.5,4.3-4.5,4.4c-30.7,0-61.4,0-92.1,0c-1.8,0-3.3-0.6-4.2-2.5c-0.9,2.2-2.6,2.6-4.7,2.6c-5.4-0.1-10.9-0.1-16.3,0
		c-3,0.1-5-1.3-6.1-4c-1.1-2.7-2.2-5.5-3.2-8.2c-0.4-1.2-1-1.6-2.3-1.5c-10.5,0-20.9,0-31.4,0c-1.1,0-1.7,0.3-2.1,1.4
		c-1,2.8-2.1,5.5-3.2,8.2c-1.1,2.8-3.1,4.2-6.3,4.2c-5.1-0.1-10.2,0-15.3,0c-3.8,0-4.8-1.5-3.2-5c9.9-22.3,19.8-44.5,29.6-66.8
		c1.6-3.6,3.8-5.3,7.9-5.1c6.1,0.3,12.1,0.2,18.2,0c3.8-0.1,5.9,1.5,7.4,4.8c6.5,14.8,13.1,29.6,19.6,44.3c3.5,8,7.1,16,10.7,24
		C248.7,437.4,248.9,437.4,249,437.4z"/>
	<path style="fill:#497488;" d="M245.1,338.4c1.9-4.9,3.8-9.6,5.7-14.6c-3.6,0-6.9,0.1-10.1-0.8c-12.2-3.2-20.8-14-20.8-26.9
		c-0.1-38.8-0.1-77.7,0-116.5c0.1-15.4,10.8-27.1,26.2-29.5c11.5-1.8,23-3.9,34.5-5.8c15.2-2.5,30.5-2.7,45.8-0.6
		c12.3,1.7,24.4,4.7,36.6,7.5c13.8,3.2,23.1,14.7,23.1,28.9c0.1,38.8,0.1,77.5,0,116.3c-0.1,16-13.5,28.3-29.4,27.4
		c-0.5,0-1.1,0-1.9,0c1.9,4.9,3.7,9.7,5.5,14.6C321.9,338.4,283.6,338.4,245.1,338.4z"/>
	<path style="fill:#012D49;" d="M402.2,443.3c-9.3-0.1-18-1.3-26.1-5.6c-10.7-5.7-16.8-14.7-18.7-26.5c-1.4-8.3-1-16.6,2-24.5
		c4.1-10.9,11.9-18.1,22.8-21.6c13.6-4.4,27.4-4.4,40.8,0.7c14.8,5.7,22.2,17.1,23.4,32.6c0.7,8.8-0.3,17.4-4.7,25.3
		c-5.9,10.6-15.4,16-26.9,18.4C410.6,443,406.2,443.2,402.2,443.3z"/>
	<path style="fill:#012D49;" d="M540.2,402.8c0,11.1,0,22.2,0,33.3c0,3.9-1.2,5.1-5.2,5.1c-4.8,0-9.6,0-14.4,0
		c-3.1,0-4.5-1.4-4.5-4.5c0-7.3-0.1-14.5,0-21.8c0-1.6-0.2-2.2-2-2.2c-9.3,0.1-18.5,0.1-27.8,0c-1.8,0-2.1,0.6-2.1,2.2
		c0.1,7.1,0,14.2,0,21.3c0,3.8-1.3,5-5,5c-4.9,0-9.7,0-14.6,0c-3.1,0-4.5-1.4-4.5-4.6c0-22.6,0-45.2,0-67.8c0-3,1.4-4.4,4.4-4.4
		c5,0,10.1,0,15.1,0c3.3,0,4.6,1.3,4.6,4.6c0.1,7.5,0.1,15,0,22.5c0,1.8,0.3,2.5,2.3,2.4c9.1-0.1,18.2-0.1,27.3,0
		c2,0,2.3-0.7,2.3-2.4c-0.1-7.5,0-15,0-22.5c0-3.3,1.3-4.6,4.6-4.6c5,0,10.1,0,15.1,0c3,0,4.4,1.4,4.4,4.4
		C540.2,380.1,540.2,391.4,540.2,402.8z"/>
	<path style="fill:#012D49;" d="M71.4,402.7c0-11,0-22,0-33.1c0-4.2,1.1-5.3,5.2-5.3c13.7,0,27.3-0.1,41,0.1
		c8.1,0.1,15.9,1.9,22.7,6.4c8.3,5.6,11.8,13.6,11.2,23.4c-0.7,10-5.9,17.1-14.9,21.5c-7.4,3.6-15.4,4.4-23.5,4.5
		c-5.1,0-10.2,0.2-15.3,0c-1.9,0-2.2,0.6-2.2,2.3c0.1,4.7,0.1,9.4,0,14.1c0,3-1.4,4.4-4.4,4.4c-5,0-10.1,0-15.1,0
		c-3.3,0-4.6-1.3-4.6-4.7C71.4,425.2,71.4,413.9,71.4,402.7z"/>
	<path style="fill:#B2C1C8;" d="M471.5,338.3c2.5-5.9,4.9-11.8,6.9-17.8c7.8-23.6,10.9-47.8,9.5-72.7c-1.4-23.4-6.7-45.9-16.3-67.3
		c-12.5-28.1-30.7-51.8-54.7-71.1c-23.1-18.6-49.2-30.9-78.3-36.7c-20.1-4.1-40.4-4.7-60.8-1.8c-37.1,5.2-69.6,20.4-97.4,45.5
		c-31.8,28.6-51.5,64.2-59.8,106.1c-3.7,18.8-4.5,37.7-2.5,56.8c2.1,19.7,6.9,38.7,14.9,57c0.3,0.7,0.8,1.4,0.7,2.2
		c-0.1,0-0.2,0.1-0.2,0.1c-4.7,0.3-4.7,0.3-6.4-3.9c-7.2-17.7-11.8-36.1-13.7-55.1c-1.6-15.5-1.3-30.9,0.7-46.4
		c3.8-28.8,13.3-55.4,28.9-79.9c18.3-28.8,42.5-51.3,72.6-67.3c18.6-9.9,38.4-16.4,59.2-19.5c17.6-2.7,35.3-2.8,53-0.3
		c39.2,5.4,73.4,21.8,102.4,48.5c25.1,23.1,42.7,51,53.2,83.5c8.3,25.7,11.1,52,8.8,78.9c-1.7,20-6.5,39.3-14,57.9
		C476.6,338.9,476.6,338.9,471.5,338.3z"/>
	<path style="fill:#FEFEFE;" d="M283.6,422.5c2.6-10.5,5-20.8,7.7-31.1c1.4-5.2,5.4-8.1,10.7-8.3c3.7-0.2,7.5-0.1,11.3-0.2
		c1.3,0,1.6,0.3,1.6,1.6c0,12.1,0,24.3,0,36.4c0,1.1-0.2,1.5-1.4,1.5C303.6,422.5,293.8,422.5,283.6,422.5z"/>
	<path style="fill:#FDFDFD;" d="M210.4,409.4c-5.7,0-11.5,0-17.2,0c-1.5,0-1.5-0.5-1-1.7c2.7-6.4,5.4-12.7,8.1-19.1
		c0.2-0.5,0.2-1.1,1-1.2c0.8-0.1,0.9,0.5,1.1,1c2.7,6.8,5.4,13.6,8.1,20.4C210.5,408.9,210.4,409.1,210.4,409.4z"/>
	<path style="fill:#FEFEFE;" d="M228.2,237.8c0-18.8,0-37.5,0-56.3c0-13,6.5-20.9,19.2-23.1c12.5-2.2,25-4.4,37.5-6.3
		c18.3-2.8,36.5-1.6,54.5,2.5c6.9,1.6,13.9,3,20.8,4.6c10.4,2.3,17.4,10.4,17.4,21.1c0.1,38.7,0.1,77.3,0,116
		c0,11-8.2,19.1-19.2,19.1c-37,0.1-74,0.1-111,0c-11.2,0-19.2-8.2-19.3-19.5C228.2,276.5,228.2,257.2,228.2,237.8z"/>
	<path style="fill:#FEFEFE;" d="M302.7,330.8c-14.4,0-28.7,0-43.1,0c-1.9,0-2.6-0.2-1.6-2.3c2.1-4.9,2-4.9,7.4-4.9
		c25.9,0,51.9,0,77.8,0c2,0,2.9,0.6,3.5,2.5c1.6,4.8,1.8,4.8-3.2,4.8C329.8,330.8,316.2,330.8,302.7,330.8z"/>
	<path style="fill:#FEFEFE;" d="M421.6,402.9c-0.3,6.5-1.2,12.9-6.3,17.5c-6.4,5.7-13.9,6.1-21.5,3.4c-7.2-2.6-10.3-8.6-11.3-15.9
		c-0.7-5.1-0.5-10.2,1.1-15.1c2.8-8.7,10-13.1,20.2-12.5c8.7,0.5,15.1,6,17,14.6C421.3,397.5,421.5,400.2,421.6,402.9z"/>
	<path style="fill:#FEFEFE;" d="M106.2,402.7c-3,0-6.1,0-9.1,0c-1.1,0-1.5-0.3-1.5-1.4c0.1-6,0-12,0-18c0-0.9,0-1.5,1.2-1.5
		c6.6,0.2,13.3-0.5,19.9,0.3c8.2,0.9,12.3,9,8.1,15.7c-2.2,3.4-5.7,4.6-9.4,4.8C112.2,402.8,109.2,402.7,106.2,402.7
		C106.2,402.7,106.2,402.7,106.2,402.7z"/>
	<path style="fill:#497488;" d="M303.2,176.4c17.4,0,34.8,0,52.3,0c8.3,0,13.4,5.2,13.5,13.4c0,11.3,0,22.7,0,34
		c0,8-5.1,13.3-13.1,13.3c-35,0-70,0-105,0c-8,0-13.2-5.3-13.2-13.2c0-11.4,0-22.8,0-34.3c0-8.1,5.3-13.3,13.4-13.3
		C268.4,176.4,285.8,176.4,303.2,176.4z"/>
	<path style="fill:#497488;" d="M343.9,298.8c-11.8,0-20.9-9.1-20.9-21c0-11.9,9-21,20.9-21c12,0,20.8,8.9,20.8,21
		C364.7,289.8,355.8,298.8,343.9,298.8z"/>
	<path style="fill:#497488;" d="M282.7,277.9c0,12-9,21-20.9,20.9c-11.9-0.1-20.8-9.1-20.7-21.1c0.1-12,9-20.9,20.9-20.9
		C273.9,256.9,282.7,265.9,282.7,277.9z"/>
	<path style="fill:#497488;" d="M303.7,159.1c7.2,0,14.4,0,21.6,0c3,0,4.8,1.5,4.8,4.1c0,2.5-1.8,4.2-4.8,4.2c-14.6,0-29.2,0-43.8,0
		c-3.1,0-4.8-1.5-4.8-4.1c0-2.6,1.6-4.1,4.7-4.2C288.8,159.1,296.3,159.1,303.7,159.1z"/>
	<path style="fill:#FEFEFE;" d="M303.2,228.8c-17.2,0-34.4,0-51.5,0c-4.4,0-5.7-1.3-5.7-5.7c0-10.9,0-21.9,0-32.8
		c0-4.2,1.4-5.6,5.6-5.6c34.5,0,69,0,103.5,0c4,0,5.5,1.5,5.5,5.5c0,11.1,0,22.2,0,33.3c0,3.9-1.5,5.4-5.4,5.4
		C337.9,228.8,320.5,228.8,303.2,228.8z"/>
	<path style="fill:#FEFEFE;" d="M356.4,277.8c0,7-5.7,12.7-12.7,12.6c-6.9-0.1-12.4-5.8-12.4-12.6c0-6.9,5.6-12.6,12.4-12.6
		C350.7,265.1,356.4,270.8,356.4,277.8z"/>
	<path style="fill:#FEFEFE;" d="M249.4,277.7c0.1-7,5.8-12.6,12.7-12.5c6.8,0.1,12.3,5.8,12.3,12.7c0,6.9-5.7,12.5-12.5,12.5
		C254.9,290.4,249.3,284.7,249.4,277.7z"/>
</g>
</svg>
