<?xml version="1.0" encoding="utf-8"?>
<!-- Generator: Adobe Illustrator 26.0.1, SVG Export Plug-In . SVG Version: 6.00 Build 0)  -->
<svg version="1.1" id="Слой_1" xmlns="http://www.w3.org/2000/svg" xmlns:xlink="http://www.w3.org/1999/xlink" x="0px" y="0px"
	 viewBox="0 0 409.6 409.6" style="enable-background:new 0 0 409.6 409.6;" xml:space="preserve">
<g>
	<path style="fill:#1D3D57;" d="M394.1,5.6c0,12.5,0,25,0,37.6c-3.4,4.5-8.2,4.9-13.4,4.9c-21-0.2-42,0-63.1-0.1
		c-2.7,0-3.7,0.6-3.5,3.4c0.3,3.3,0.2,6.7,0,10c-0.1,2,0.4,2.8,2.6,2.7c3.7-0.2,7.4-0.1,11.2,0c7.4,0,10.2,2.8,10.2,10.1
		c0,6.3,0.2,12.5-0.1,18.8c-0.1,2.8,0.9,3.2,3.3,3.2c13.7-0.1,27.4,0.1,41.1-0.1c5.1-0.1,9,1.1,11.6,5.7c0,101,0,202,0,303
		c-2,1.8-3.8,3.9-6.4,4.8c-122.1,0-244.1,0-366.2,0c-0.3-0.4-0.5-0.9-0.9-1.2c-3.6-2.5-4.3-6-2.9-9.9c1.3-3.8,4.5-4.9,8.3-4.9
		c1.4,0,2.8,0,5.1,0c-6-6-11.4-11.3-16.7-16.6c-5.2-5.3-5.2-9.4,0-14.7c7.4-7.5,14.8-14.9,22.4-22.3c1.9-1.8,1.9-2.8,0-4.7
		c-7.5-7.3-14.9-14.8-22.4-22.3c-5.3-5.3-5.3-9.4,0-14.7c7.4-7.5,14.8-14.9,22.4-22.3c1.8-1.8,2-2.8,0.1-4.7
		c-7.5-7.2-14.7-14.6-22.1-22c-5.7-5.7-5.7-9.6-0.1-15.3c8.9-9,18-17.8,26.8-26.9c3.8-4,7.9-6.3,13.4-5.5c3,0.5,3.7-0.7,3.7-3.6
		c-0.2-17.7-0.2-35.4,0-53.1c0.1-14.5,10.3-24.5,24.7-24.8c3.6-0.1,7.2,0,10.8,0c18.9,0,37.8-0.1,56.7,0.1c2.8,0,4.3-0.4,3.7-3.6
		c-0.2-0.8,0-1.6,0-2.4c0.1-7.2,2.9-10.1,10.3-10.1c6.4,0,12.8,0,19.2,0c1.1,0,2.3,0.5,2.8-1.3c1.3-5.4,5.3-6.7,10.3-6.7
		c14,0.1,28,0,42,0.1c2.7,0,3.7-0.4,3.6-3.4c-0.3-5.8-0.1-11.7-0.1-17.6c0-8.5,2.6-11.1,10.9-11.1c3.2,0,6.4-0.3,9.6,0.1
		c3.2,0.3,3.6-0.9,3.6-3.8c-0.2-11.8-0.2-23.7,0-35.5c0.1-10.4,4.9-18,14.3-22.6c1.6-0.8,3.7-0.5,4.9-2.1c34.1,0,68.2,0,102.3,0
		C390.5,1.1,392.4,3.2,394.1,5.6z M378.1,252.6c0-45.6,0-91.1,0.1-136.7c0-3.3-0.8-4.1-4.1-4.1c-56,0.1-111.9,0.1-167.9,0
		c-3.3,0-4.1,0.8-4.1,4.1c0.1,91.1,0.1,182.2,0,273.4c0,3.3,0.8,4.1,4.1,4.1c56-0.1,111.9-0.1,167.9,0c3.3,0,4.1-0.8,4.1-4.1
		C378,343.8,378.1,298.2,378.1,252.6z M133.4,396.5c17.6,0,34.2,0,50.8,0c2.1,0,2-1.1,2-2.5c0-4.3,0-8.5,0-12.8
		c0-63.5,0-127.1,0.1-190.6c0-2.9-0.6-3.8-3.7-3.7c-6.5,0.3-13.1,0.2-19.6,0.1c-5.5-0.1-8.6-3.2-8.8-8.7c-0.1-1.5-0.1-2.9,0-4.4
		c0.3-2.2-0.5-2.9-2.8-2.9c-14.1,0.1-28.2,0.1-42.4,0c-2.8,0-2.9,1.1-2.9,3.2c0.1,8.9,0.2,17.8,0,26.8c-0.1,2.9,0.6,4.1,3.6,3.7
		c5.1-0.7,9.1,1.1,12.8,4.9c9,9.4,18.4,18.5,27.6,27.8c5.3,5.3,5.2,9.4-0.1,14.7c-7.4,7.5-14.8,15-22.4,22.3c-2,1.9-1.7,2.9,0.1,4.7
		c7.5,7.3,14.9,14.8,22.4,22.3c5.2,5.2,5.2,9.4-0.1,14.7c-7.3,7.4-14.6,14.8-22.1,22c-2.3,2.2-2,3.2,0.1,5.3
		c7.2,6.9,14.2,14.1,21.2,21.1c6.4,6.4,6.4,9.9-0.1,16.4C144.3,385.8,139.2,390.8,133.4,396.5z M333.3,16c-13.9,0-27.7,0-41.6,0
		c-6.5,0-9.5,3-9.6,9.6c-0.1,8.5-0.1,17.1,0,25.6c0.1,4.2-1.9,10.1,0.8,12.2c2.8,2.1,8.4,0.5,12.8,0.7c2,0.1,2.5-0.6,2.4-2.5
		c-0.1-6.4-0.1-12.8,0-19.2c0-7.6,2.8-10.4,10.4-10.4c18.9,0,37.8,0,56.8,0c4.2,0,9.8,1.8,12.2-0.8c2.1-2.3,0.4-7.9,0.7-12
		c0.2-2.7-0.7-3.3-3.3-3.3C361,16.1,347.1,16,333.3,16z M37.6,249.5c5.4,5.3,10.1,9.9,14.8,14.6c1.2,1.2,2.5,1.3,4,1.3
		c17.3,0,34.6,0,51.9,0c1.2,0,2.4,0.3,3.4-0.7c4.9-4.9,9.8-9.8,15.3-15.2C96.8,249.5,67.7,249.5,37.6,249.5z M37.6,297.1
		c30.1,0,59.3,0,89,0c-5-5-9.6-9.4-14.1-14c-1.2-1.2-2.5-1.7-4.2-1.7c-17.4,0.1-34.9,0-52.3,0c-1.2,0-2.3-0.2-3.4,0.8
		C47.9,287,43,291.8,37.6,297.1z M37.6,313.5c5.2,5.1,9.8,9.6,14.2,14.1c1.3,1.4,2.7,1.8,4.6,1.8c17.3-0.1,34.6,0,51.9-0.1
		c1,0,2.2,0.4,3.1-0.5c5-5,10-9.9,15.4-15.3C96.8,313.5,67.7,313.5,37.6,313.5z M126.8,361.2c-5.2-5.2-9.9-9.7-14.4-14.4
		c-1.3-1.3-2.6-1.5-4.3-1.5c-17.3,0-34.6,0-51.9,0c-1,0-2.2-0.4-3.1,0.5c-5,5-10,10-15.4,15.4C67.7,361.2,96.8,361.2,126.8,361.2z
		 M126.9,377.5c-30.1,0-59.2,0-89.4,0c5.5,5.4,10.4,10.2,15.3,15c1,1,2.2,0.8,3.3,0.8c17.4,0,34.9,0,52.3,0c1.2,0,2.3,0.2,3.3-0.8
		C116.6,387.7,121.5,382.9,126.9,377.5z M37.5,233.3c30.2,0,59.4,0,89.4,0c-5.4-5.3-10.3-10.1-15.1-15c-1-1-2.2-0.8-3.3-0.8
		c-17.4,0-34.9,0-52.3,0c-1.2,0-2.3-0.2-3.3,0.8C47.9,223.1,43,227.9,37.5,233.3z M74.3,155.8c0,1.9,0,3.7,0,5.6
		c0,8.1,0,8.1,7.9,8.1c7.9,0,7.9,0,8.1-7.9c0.1-6.6,3-9.6,9.5-9.6c6.7-0.1,13.3-0.1,20,0c1.8,0,2.6-0.3,2.5-2.4
		c-0.2-3.7-0.1-7.5,0-11.2c0.1-1.8-0.4-2.5-2.4-2.5c-12.3,0.1-24.5,0-36.8,0.1c-5.7,0-8.7,3.3-8.8,9.1
		C74.2,148.6,74.3,152.2,74.3,155.8z M289.7,96c6.5,0,13.1,0.1,19.6,0c4.2-0.1,9.8,1.8,12.2-0.8c2.1-2.3,0.4-7.9,0.7-11.9
		c0.2-2.6-0.7-3.3-3.3-3.3c-16,0.1-32,0-48,0.1c-4.2,0-10-1.9-12.2,0.8c-2.1,2.6-0.4,8.1-0.7,12.4c-0.1,2.3,0.6,2.9,2.9,2.9
		C270.5,95.9,280.1,96,289.7,96z M170.2,143.5c0,3.9-0.1,7.7,0,11.6c0.1,4.2-1.8,9.8,0.8,12.2c2.3,2.1,7.9,0.4,12,0.7
		c2.6,0.2,3.3-0.6,3.3-3.3c-0.2-10.7,0-21.3-0.1-32c0-4.2,1.9-10-0.8-12.2c-2.6-2.1-8.1-0.4-12.4-0.7c-2.3-0.1-2.9,0.6-2.9,2.9
		C170.3,129.7,170.2,136.6,170.2,143.5z M146.4,135.9c-8.2,0-8.2,0-8.2,8.2c0,7.8,0,7.8,7.8,7.8c8.2,0,8.2,0,8.2-8.2
		C154.2,135.9,154.2,135.9,146.4,135.9z M82.6,185.5c-8.3,0-8.3,0-8.3,8.1c0,0.1,0,0.3,0,0.4c0,7.5,0,7.5,7.3,7.5
		c8.7,0,8.7,0,8.7-8.5C90.2,185.5,90.2,185.5,82.6,185.5z"/>
	<path style="fill:#1D3D57;" d="M289.9,249.4c-15.2,0-30.4,0-45.5,0c-7.3,0-10.2-2.9-10.2-10.1c0-12.4,0-24.8,0-37.1
		c0-7.4,2.8-10.3,10.1-10.3c30.6,0,61.2,0,91.9,0c7.1,0,10,2.9,10,9.9c0,12.5,0,25,0,37.5c0,7.3-2.9,10.1-10.3,10.1
		C320.5,249.5,305.2,249.4,289.9,249.4z M290.1,233.5c12.4,0,24.8-0.1,37.2,0.1c2.3,0,2.9-0.6,2.9-2.9c-0.1-6.7-0.2-13.3,0-20
		c0.1-2.3-0.6-2.9-2.9-2.8c-24.8,0.1-49.6,0.1-74.3,0c-2.3,0-2.9,0.6-2.9,2.9c0.2,6.5,0.2,13.1,0,19.6c-0.1,2.6,0.7,3.3,3.3,3.3
		C265.6,233.4,277.9,233.5,290.1,233.5z"/>
	<path style="fill:#1D3D57;" d="M282.1,152.1c0,4.9,0.1,9.8,0,14.8c-0.1,5.8-3.2,8.9-8.9,9c-10,0.1-20,0.1-29.9,0
		c-6-0.1-9.1-3.2-9.1-9.2c-0.1-9.8-0.1-19.7,0-29.5c0-6,3.1-9.1,9.1-9.2c10-0.1,20-0.1,29.9,0c5.7,0.1,8.8,3.2,8.9,9
		C282.2,142,282.1,147.1,282.1,152.1z M266.1,152.2c0-8.3,0-8.3-8.1-8.3c-7.9,0-7.9,0-7.9,7.7c0,8.3,0,8.3,8.1,8.3
		C266.1,159.9,266.1,159.9,266.1,152.2z"/>
	<path style="fill:#1D3D57;" d="M322.4,127.9c4.9,0,9.8-0.1,14.8,0c5.7,0.1,8.9,3.2,8.9,9c0.1,10,0.1,19.9,0,29.9
		c-0.1,5.8-3.2,8.9-8.9,9c-10.1,0.1-20.2,0.1-30.3,0c-5.5-0.1-8.6-3.3-8.7-8.8c-0.1-10.1-0.1-20.2,0-30.3c0.1-5.7,3.3-8.7,9.1-8.8
		C312.3,127.9,317.3,127.9,322.4,127.9z M330.1,152.2c0-8.3,0-8.3-8.5-8.3c-7.5,0-7.5,0-7.5,7.7c0,8.3,0,8.3,8.5,8.3
		C330.1,159.9,330.1,159.9,330.1,152.2z"/>
	<path style="fill:#1D3D57;" d="M258.1,345.4c-4.9,0-9.8,0.1-14.8,0c-6-0.1-9.1-3.1-9.2-9.1c-0.1-4.9-0.1-9.8,0-14.8
		c0.4-13.7,11-24.2,24.2-24c13.1,0.2,23.4,10.5,23.7,24.1c0.1,4.9,0.1,9.8,0,14.8c-0.1,6-3.2,9-9.2,9.1
		C268,345.4,263,345.4,258.1,345.4z M258.1,329.4c8.3,0,8.3,0,8-7.1c-0.2-5.3-3.6-9-8.2-8.9c-5.5,0.2-7.9,4.2-7.8,12.8
		c0.1,6.4,5,1.7,7.2,3.1C257.5,329.5,257.9,329.4,258.1,329.4z"/>
	<path style="fill:#1D3D57;" d="M321.9,345.4c-4.9,0-9.8,0.1-14.8,0c-5.8-0.1-8.8-3.2-9-8.9c-0.1-5.1-0.2-10.1,0-15.2
		c0.5-13.5,10.9-23.8,24-23.8c13.1,0,23.5,10.4,23.9,23.9c0.2,5,0.1,10.1,0,15.2c-0.1,5.7-3.2,8.8-9,8.9
		C332,345.4,326.9,345.4,321.9,345.4z M322.1,329.4c8.3,0,8.3,0,8-7.1c-0.2-5.3-3.6-9-8.2-8.8c-5.5,0.2-7.9,4.2-7.8,12.8
		c0.1,6.4,5,1.7,7.2,3.1C321.5,329.5,321.8,329.4,322.1,329.4z"/>
	<path style="fill:#1D3D57;" d="M273.9,281.4c-10.2,0-20.5,0.1-30.7,0c-6.7-0.1-10.8-5.6-8.3-11.1c1.5-3.2,4.2-4.8,7.6-4.8
		c21,0,42-0.1,63,0c4.9,0,8.3,3.5,8.4,7.8c0.1,4.5-3.5,8-8.6,8.1C295,281.5,284.4,281.4,273.9,281.4z"/>
	<path style="fill:#1D3D57;" d="M338.2,281.4c-4.1,0.1-7.9-3.6-8.1-7.7c-0.1-4.3,3.7-8.2,8-8.2c4.1,0.1,7.9,3.8,7.9,7.9
		C346,277.5,342.4,281.3,338.2,281.4z"/>
	<path style="fill:#1D3D57;" d="M242.1,361.4c4.1,0,7.9,3.7,8,7.8c0.1,4.1-3.6,7.9-7.7,8.1c-4.3,0.1-8.2-3.7-8.2-8
		C234.3,365.1,238,361.4,242.1,361.4z"/>
	<path style="fill:#1D3D57;" d="M282.1,369.2c0.1,4.1-3.5,8-7.7,8.1c-4.3,0.2-8.2-3.7-8.2-8c0-4.1,3.7-7.9,7.9-7.9
		C278.2,361.3,282,365,282.1,369.2z"/>
	<path style="fill:#1D3D57;" d="M306.1,361.4c4.1,0,7.9,3.7,8,7.8c0.1,4.1-3.6,7.9-7.7,8.1c-4.3,0.1-8.2-3.7-8.2-8
		C298.2,365.1,302,361.4,306.1,361.4z"/>
	<path style="fill:#1D3D57;" d="M346,369.3c0,4.1-3.7,7.9-7.8,8c-4.3,0.1-8.2-3.9-8.1-8.1c0.1-4.2,3.9-7.8,8-7.8
		C342.3,361.5,346,365.2,346,369.3z"/>
</g>
</svg>
