<?xml version="1.0" encoding="utf-8"?>
<!-- Generator: Adobe Illustrator 26.0.1, SVG Export Plug-In . SVG Version: 6.00 Build 0)  -->
<svg version="1.1" id="Слой_1" xmlns="http://www.w3.org/2000/svg" xmlns:xlink="http://www.w3.org/1999/xlink" x="0px" y="0px"
	 viewBox="0 0 494.9 495.2" style="enable-background:new 0 0 494.9 495.2;" xml:space="preserve">
<g>
	<path style="fill:#1D3D57;" d="M323.8,495.2c-4.3-3.7-5.4-8.6-4.5-13.9c0.8-5.1-1.5-6.9-6-8.1c-8.7-2.2-17-6-24.7-10.6
		c-2.5-1.5-4.1-1.4-6.1,0.8c-3.9,4.3-8.1,8.3-12.3,12.3c-4.7,4.5-8.8,4.6-13.4,0c-10-9.8-19.9-19.7-29.7-29.7
		c-4.8-4.8-4.7-8.8,0.2-13.8c4-4.2,8.1-8.3,12.3-12.3c1.8-1.7,2.3-2.9,0.9-5.3c-5.4-8.8-9.3-18.3-12-28.3c-0.7-2.6-1.9-3.3-4.3-3.2
		c-3,0.2-6.1,0.1-9.2-0.1c-4.3-0.3-7.1-2.8-7.2-7c-0.2-16.4-0.2-32.8,0-49.3c0.1-4.5,3.5-7.9,8.5-7.2c9.5,1.4,13.1-2.8,14.9-11.4
		c1.5-7,5.1-13.5,9-19.6c1.4-2.3,1.4-3.7-0.7-5.7c-4.3-3.9-8.3-8.1-12.3-12.3c-4.9-5-5-8.9-0.2-13.7c9.8-10,19.8-19.9,29.7-29.7
		c4.7-4.6,8.6-4.6,13.4,0.1c4.4,4.3,8.8,8.6,13,13c1.5,1.6,2.7,1.7,4.5,0.6c9-5.4,18.6-9.4,28.7-12.2c2.5-0.7,3-1.9,2.9-4.1
		c-0.1-2.7-0.2-5.5,0-8.2c0.4-5.7,3.3-8.5,9-8.5c15.3-0.1,30.6-0.1,45.9,0c6,0,8.7,2.9,8.9,8.9c0.1,3.5-0.9,7.7,0.7,10.4
		c1.6,2.8,6.3,2.4,9.6,3.6c7.1,2.6,14.1,5.5,20.5,9.4c2.8,1.7,4.3,1.2,6.4-1c3.9-4.3,8.1-8.3,12.3-12.3c4.6-4.3,8.6-4.4,13.1,0.1
		c10.1,9.9,20.1,20,30.1,30.1c4.3,4.4,4.3,8.6,0,13.1c-4.2,4.4-8.5,8.8-13,13c-1.7,1.6-2,2.8-0.7,4.9c5.2,8.9,9.3,18.3,11.9,28.3
		c0.6,2.5,1.9,3.3,4.4,3.1c2.6-0.2,5.2-0.2,7.7,0c5.9,0.4,8.8,3.3,8.8,9.3c0.1,15.1,0.1,30.3,0,45.4c0,6.2-3,8.9-9.3,9.2
		c-3.5,0.2-7.9-1.4-10.3,0.7c-2.2,1.9-2.4,6.1-3.4,9.3c-2.4,7.2-5.3,14.1-9.4,20.6c-1.8,2.9-1.4,4.7,1.1,6.9
		c4.1,3.6,7.8,7.6,11.7,11.6c4.8,4.9,4.9,9,0.2,13.8c-9.8,10-19.7,19.9-29.7,29.7c-4.6,4.5-8.8,4.4-13.4-0.1
		c-4.3-4.1-8.6-8.3-12.6-12.7c-1.8-1.9-3.2-2-5.3-0.7c-8.7,5.2-18,9.2-27.9,11.7c-2.6,0.7-3.8,1.8-3.5,4.7c0.3,1.9-0.1,3.9,0.1,5.8
		c0.4,5-1.4,8.6-6.1,10.6C359.2,495.2,341.5,495.2,323.8,495.2z M351.2,479.2c2.7,0,5.5,0,8.2,0c7.8,0,7.8,0,7.9-7.7
		c0-6.6,1.4-9.2,6.9-10.5c14.1-3.3,27.1-8.7,39.3-16.6c4-2.6,7.9-2.1,11.3,1.4c4.1,4.1,8.2,8.1,12.3,12.3c1.4,1.5,2.4,1.6,3.9,0
		c5.5-5.7,11.1-11.3,16.7-16.7c1.7-1.7,1.7-2.6,0-4.2c-3.5-3.3-6.9-6.8-10.3-10.2c-6.2-6.2-6.5-8.2-1.9-15.5
		c5.9-9.5,10.5-19.5,13.4-30.3c3.5-13.1,3.5-13.2,16.8-13.6c2.6-0.1,3.3-0.8,3.2-3.3c-0.1-6.8,0-13.5,0-20.3c0-8.3,0-8.3-8.1-8.4
		c-6.3-0.1-9-1.9-10.4-7.8c-3-13.5-8.4-25.9-15.7-37.6c-3.5-5.6-3-8.3,1.8-13.2c3.6-3.7,7.2-7.4,11-10.9c2.1-1.9,1.9-3.1-0.1-4.9
		c-5.4-5.1-10.7-10.3-15.7-15.7c-2.2-2.3-3.4-1.9-5.3,0.2c-3.3,3.6-6.8,6.9-10.2,10.3c-5.4,5.3-7.9,5.7-14.3,1.7
		c-9.4-6-19.4-10.7-30.2-13.6c-13.6-3.7-13.7-3.5-14.3-17.3c-0.1-2.2-0.6-3.1-3-3.1c-8.7,0.1-17.4,0.1-26.1,0c-2.4,0-3.2,0.8-3,3
		c0.2,1.8,0.1,3.5,0,5.3c-0.1,6.3-1.7,8.8-7.9,10.3c-13.6,3.2-26.2,8.6-37.9,16.1c-4.9,3.1-7.9,2.7-12.1-1.4c-4-3.9-8.1-7.9-11.9-12
		c-1.6-1.7-2.6-1.5-4.1,0.1c-5.4,5.5-10.8,11-16.4,16.4c-1.7,1.7-1.9,2.8-0.1,4.5c3.7,3.4,7.1,7,10.6,10.5c5.6,5.6,6,8,1.7,14.7
		c-6.6,10.4-11.4,21.5-14.4,33.5c-2.6,10.1-3.7,11-14.2,11c-0.5,0-1,0.1-1.4,0c-2.9-0.4-3.9,0.5-3.8,3.6c0.3,6.8,0.1,13.5,0.1,20.3
		c0,7.9,0,7.9,8.1,8c6.7,0.1,9,1.5,10.4,7.6c3.3,13.7,8.6,26.5,16.3,38.4c2.8,4.3,2.2,8.2-1.4,11.7c-3.9,3.9-7.7,7.8-11.6,11.6
		c-1.9,1.7-2.4,2.9-0.2,4.9c5.5,5.2,10.9,10.5,16.1,16.1c2.1,2.2,3.2,1.6,4.9-0.3c3.3-3.5,6.8-6.9,10.2-10.3c5.6-5.6,8-5.9,14.8-1.7
		c9.6,6.1,19.7,10.8,30.7,13.7c13.1,3.5,13.2,3.4,13.6,16.9c0.1,2.7,1,3.2,3.4,3.1C342.8,479,347,479.2,351.2,479.2z"/>
	<path style="fill:#1D3D57;" d="M0,108.5c4-4.6,9.3-5.1,14.9-4.6c2.9,0.3,4.1-0.7,4.9-3.7c2.4-10,6.3-19.6,11.7-28.4
		c1.7-2.7,1.1-4.2-1-6c-1.6-1.3-3.1-2.9-4.4-4.5c-2.8-3.5-3-7.3,0.1-10.5c7.9-8.2,16-16.4,24.2-24.3c3.7-3.6,7.8-3,12,0.8
		c6.2,5.7,6.2,5.7,13.6,1.8c7.7-4.1,15.8-7.3,24.2-9.2c2.8-0.7,3.5-1.8,3.5-4.5c0.2-14.4,1-15.1,15.5-15.1c7.6,0,15.1-0.1,22.7,0
		c6.7,0.1,9.6,3,9.7,9.8c0.2,8.7,0.2,8.7,8.6,11.2c8.2,2.4,16.1,5.7,23.3,10.2c2.8,1.7,4.5,1.5,6.4-1c1.1-1.4,2.4-2.6,3.7-3.8
		c3.9-3.3,8-3.4,11.7,0.1c7.9,7.6,15.6,15.3,23.2,23.2c3.9,4.1,3.6,8.3-0.6,12.7c-5.6,5.9-5.5,5.9-1.7,13.2c4.2,7.8,7.4,16,9.4,24.7
		c0.6,2.5,1.7,3.3,4.2,3.3c15,0.3,15.3,0.7,15.3,15.8c0,7.6,0.1,15.1,0,22.7c-0.1,6.5-2.9,9.3-9.5,9.5c-8.9,0.3-8.8,0.3-11.5,8.8
		c-2.6,8.3-6,16.3-10.6,23.7c-1.4,2.3-1.2,3.6,0.7,5.2c1.4,1.1,2.6,2.4,3.8,3.7c4,4.3,4.1,8.6,0.1,12.8
		c-7.4,7.6-14.9,15.1-22.5,22.5c-4.2,4.1-8.4,3.9-12.8,0c-6.3-5.7-6.2-5.6-13.9-1.7c-7.7,4-15.8,7.2-24.3,9.1
		c-2.5,0.6-3.4,1.6-3.3,4.2c1,15.7-3.8,15.7-15.7,15.3c-7.4-0.2-14.8,0-22.2,0c-7.1-0.1-9.8-2.9-10.1-9.9c-0.3-8.5-0.3-8.4-8.3-10.9
		C87,232.2,79,229,71.6,224.4c-2.6-1.6-4.2-1.4-6,0.9c-1.1,1.4-2.4,2.6-3.7,3.8c-4,3.5-8.2,3.6-12-0.1c-7.8-7.5-15.4-15.1-22.9-22.9
		c-4.2-4.4-3.9-8.4,0.5-13.1c5.4-5.8,5.3-5.7,1.6-12.8c-3.8-7.1-7.1-14.5-8.7-22.4c-1-4.5-2.7-6.7-7.6-5.9
		c-5.1,0.8-9.5-0.6-12.8-4.7C0,134.3,0,121.4,0,108.5z M67.2,204.3c1.5,0,3.1,0.3,5.4,1.9c12.1,8.3,25.4,13.6,39.8,16.3
		c5.1,0.9,7.2,4.2,7.4,9.2c0.3,8.1,0.3,8.1,8.4,8.1c0.2,0,0.3,0,0.5,0c6.8,0,6.8,0,6.9-6.8c0.1-7.1,1.9-9.3,8.9-11
		c3.9-0.9,7.8-1.8,11.7-2.9c9.3-2.7,17.9-7.1,25.9-12.6c3.6-2.5,7.2-3.3,11.1-0.4c2.4,1.8,3.9,6.1,6.7,5.3c2.7-0.7,4.7-4.2,7-6.4
		c0.6-0.6,1.1-1.2,1.7-1.7c3.4-2.4,3.4-4.4,0.1-7.3c-5.6-5.1-6.2-8.1-2.6-13.4c8-11.9,13.2-24.9,16-38.9c1.2-6,3.7-7.7,9.7-8
		c7.7-0.3,7.7-0.3,7.7-7.9c0-7.7,0-7.7-7.6-7.9c-6-0.1-8.3-2-9.8-7.9c-1.1-4.2-1.9-8.5-3.2-12.6c-2.8-9.5-7.2-18.2-12.8-26.3
		c-2.5-3.7-2.9-7.4,0.1-11.1c1.7-2.2,5.6-3.7,5.1-6.4c-0.5-2.4-3.7-4.2-5.8-6.3c-0.6-0.6-1.2-1.1-1.7-1.7c-2.8-4-5.2-4.1-8.6-0.2
		c-4.1,4.7-7.5,5.4-11.8,2.4c-12.5-8.3-26-13.9-40.7-16.6c-4.7-0.9-6.6-4-7.1-8.5c-0.3-2.8,1.4-6.7-0.9-8.2c-2-1.4-5.6-0.4-8.5-0.4
		c-6.4,0-6.4,0-6.5,6.6c-0.1,6.7-1.7,9.5-7.5,10.6c-14.6,2.8-27.9,8.3-40.2,16.6c-3.2,2.2-6.6,2.1-9.8-0.4c-2.4-1.8-4-6-6.7-5.3
		c-2.7,0.7-4.7,4.2-7,6.4c-0.6,0.6-1.1,1.2-1.7,1.7c-3.5,2.4-3.4,4.4-0.1,7.3c5.4,4.8,6.2,7.9,3.1,12.5c-8.3,12.5-14,26-16.7,40.7
		c-0.8,4.6-4,6.7-8.5,7c-8.6,0.6-8.6,0.6-8.6,9.3c0,6.4,0,6.4,6.7,6.5c6.5,0.1,9.3,1.6,10.4,7.1c2.9,14.7,8.3,28.3,16.7,40.7
		c2.2,3.2,2,6.6-0.4,9.9c-1.7,2.4-6,3.9-5.3,6.7c0.7,2.7,4.2,4.7,6.4,7c0.9,0.9,2,1.7,2.7,2.8c1.8,2.5,3.3,2.3,5.2,0
		C60.8,207.3,63.2,204.6,67.2,204.3z"/>
	<path style="fill:#1D3D57;" d="M183.6,407.3c-0.2,2.7-1.5,4.9-3.4,6.7c-7.3,7.3-14.5,14.6-21.9,21.8c-4.7,4.6-8.6,4.5-13.4-0.1
		c-2.9-2.8-5.8-5.6-8.5-8.6c-1.7-1.9-3.2-2.5-5.8-1.5c-2.6,1.1-3,2.6-3,5.1c-0.1,16.3-0.2,16.3-16.6,16.3c-7.1,0-14.2,0.1-21.3,0
		c-7.1-0.1-9.7-2.8-9.9-10c0-2.1-0.2-4.2,0-6.3c0.2-2.6-0.5-4-3.1-5.1c-2.6-1.1-4-0.3-5.7,1.5c-2.8,3.1-5.8,6-8.9,8.9
		c-4.4,4.1-8.4,4.2-12.7,0c-7.6-7.4-15.1-14.9-22.5-22.5c-4.2-4.3-4.1-8.3,0.1-12.7c2.9-3,5.8-6.1,8.9-8.9c1.9-1.7,2.4-3.2,1.4-5.8
		c-1.1-2.7-2.7-3.2-5.2-3c-2.4,0.2-4.8,0.1-7.2,0c-6-0.2-8.8-2.9-8.9-9c-0.2-10-0.2-20,0-29.9c0.1-6,3.1-8.7,9.1-8.8
		c2.4-0.1,4.8-0.2,7.2,0c2.6,0.2,4-0.6,5.1-3.1c1.1-2.7,0.2-4.1-1.6-5.7c-3.1-2.8-6-5.8-8.9-8.9c-4.1-4.4-4.2-8.4,0.1-12.7
		c7.4-7.6,14.9-15.1,22.5-22.5c4.1-4,8.1-4,12.4-0.1c3.1,2.8,6,5.8,8.9,8.9c1.7,1.8,3.1,3.1,6.1,1.8c3-1.3,2.9-3.3,2.9-5.7
		c0-2.7-0.1-5.5,0.1-8.2c0.3-4.5,3-7.2,7.4-7.3c10.8-0.2,21.6-0.2,32.4,0c4.8,0.1,7.5,3.1,7.8,8.1c0.1,2.6,0.1,5.2,0,7.7
		c-0.1,2.6,0.1,4.3,3.1,5.5c3.1,1.3,4.4-0.2,6-2c2.8-2.9,5.6-5.8,8.5-8.5c4.3-4,8.3-4.2,12.4-0.3c7.9,7.6,15.6,15.3,23.2,23.2
		c3.8,3.9,3.6,8-0.1,12c-3.2,3.4-6.4,6.8-9.9,9.9c-2,1.8-1.4,3.2-0.6,5.1c0.8,1.9,1.5,3.3,4.1,3.1c3-0.3,6.1-0.2,9.2,0
		c4.9,0.3,7.9,3,8,7.9c0.2,10.6,0.2,21.3,0,31.9c-0.1,4.9-3,7.5-8,7.8c-2.7,0.2-5.5,0.2-8.2,0c-2.5-0.2-4,0.5-5.1,3.1
		c-1.1,2.6-0.3,4,1.5,5.7c3,2.7,5.7,5.6,8.6,8.5C182,402.5,183.4,404.6,183.6,407.3z M55.8,299.2c-0.5,0.4-0.9,0.6-1.2,0.9
		c-3.4,3.4-6.8,6.9-10.2,10.2c-1.5,1.5-0.1,2.2,0.7,3.1c2.7,2.8,5.4,5.5,8.2,8.2c3.2,3.1,3.7,6.6,1.8,10.5c-1.9,3.9-3.7,7.8-4.9,12
		c-1.4,5-4.6,7.3-9.9,7.2c-8.3-0.1-8.3,0.1-8.3,8.2c0,7.8,0,8,8.1,7.8c5.3-0.1,8.6,2.1,10.1,7.1c1.2,4.2,2.9,8.1,4.9,12
		c2.1,4.1,1.4,7.7-1.9,11c-2.8,2.7-5.5,5.5-8.2,8.2c-1,1-1.7,1.7-0.3,3.1c3.7,3.5,6.8,8.8,11.2,10.2c2.8,0.9,6-5.3,9.3-8.2
		c0.2-0.2,0.5-0.4,0.7-0.7c3.2-3.3,6.9-3.9,11-1.9c4,2,8.2,3.7,12.5,5c4.6,1.4,6.6,4.5,6.6,9.4c0,8.6,0.1,8.6,8.8,8.6
		c7.2,0,7.2,0,7.3-7.4c0.1-7.3,1.2-8.7,8.1-11.1c3.8-1.3,7.4-3,11.1-4.6c4-1.8,7.5-1.4,10.6,1.8c2.7,2.8,5.6,5.4,8.2,8.2
		c1.5,1.6,2.4,1.5,3.8,0c2.8-3.1,5.8-6.1,8.9-8.9c1.6-1.4,1.6-2.4,0-3.8c-2.8-2.6-5.5-5.4-8.2-8.2c-3.1-3.1-3.7-6.6-1.8-10.6
		c2-4,3.8-8.2,5-12.5c1.4-4.8,4.6-6.9,9.7-6.8c8.5,0.1,8.5-0.1,8.5-8.5c0-7.4,0-7.4-7.7-7.5c-7-0.1-8.5-1.3-10.9-7.8
		c-1.4-3.9-3.1-7.7-4.7-11.6c-1.7-3.8-1.3-7.2,1.7-10.2c2.7-2.7,5.4-5.5,8.2-8.2c1-1,2.3-1.9,0.6-3.5c-3.7-3.5-6.9-8.7-11.3-10.1
		c-2.9-0.9-6,5.3-9.2,8.1c-0.2,0.2-0.5,0.4-0.7,0.7c-3.2,3.4-6.9,3.8-11,1.8c-3.9-2-7.9-3.7-12-4.9c-4.9-1.4-6.9-4.6-6.9-9.6
		c0-8.6-0.2-8.6-8.5-8.6c-7.5,0-7.5,0-7.6,7.6c0,7-1.3,8.6-7.8,10.9c-3.8,1.4-7.5,2.9-11.1,4.6c-4.3,2-8.1,1.5-11.4-2
		c-2.4-2.6-5-5-7.5-7.5C57.3,300.4,56.6,299.8,55.8,299.2z"/>
	<path style="fill:#1D3D57;" d="M335.3,128.2c0,19.8-0.1,39.6,0.1,59.4c0,3.3-0.8,4.3-4.2,4.3c-12-0.1-12,0-12-11.9
		c0-37,0.1-74-0.1-111c0-4,1-5.1,5-5c11.2,0.3,11.3,0.1,11.3,11.1C335.3,92.8,335.3,110.5,335.3,128.2z"/>
	<path style="fill:#1D3D57;" d="M367.2,63.6c0-19.8,0.1-39.6-0.1-59.4c0-3.1,0.7-4.3,3.9-4c3.8,0.4,8.8-1.1,11.2,0.8
		c2.5,2,0.8,7.2,0.8,11c0.1,37.2,0,74.4,0.1,111.6c0,3.5-0.7,4.6-4.4,4.5c-11.5-0.2-11.5,0-11.5-11.3
		C367.2,99,367.2,81.3,367.2,63.6z"/>
	<path style="fill:#1D3D57;" d="M351.1,447.2c-52.8-0.1-96.1-43.5-95.7-95.9c0.4-52.7,43.1-95.4,95.7-95.6
		c52.5-0.2,95.8,43.1,95.8,95.8C446.9,404.3,403.9,447.3,351.1,447.2z M271.5,351.7c0.1,44,36.2,79.9,80,79.6
		c43.8-0.3,79.5-36.1,79.5-79.8c0-43.9-35.9-79.8-79.9-79.8C307.1,271.8,271.3,307.7,271.5,351.7z"/>
	<path style="fill:#1D3D57;" d="M127.8,207.9c-43.8,0.1-79.8-36-79.8-80c0.1-44,35.3-79.3,79.4-79.6c43.8-0.3,79.9,35.5,80.2,79.5
		C207.8,171.5,171.6,207.8,127.8,207.9z M127.7,191.8c35.3,0,63.7-28.5,63.7-63.8c0-35.2-28.6-63.9-63.8-63.8
		c-35,0-63.9,28.8-63.8,63.9C63.9,163.2,92.5,191.8,127.7,191.8z"/>
	<path style="fill:#1D3D57;" d="M103.5,399.4c-21.8-0.2-40.1-18.8-39.7-40.3c0.4-21.7,18.4-39.6,39.9-39.6
		c21.7,0,40.1,18.5,39.9,40.1C143.5,381.4,125.1,399.6,103.5,399.4z M103.6,383.3c13.3,0.1,24-10.5,24-23.8
		c0-13.1-10.5-23.7-23.5-23.9c-13.3-0.2-24.1,10.3-24.2,23.6C79.8,372.6,90.3,383.2,103.6,383.3z"/>
	<path style="fill:#1D3D57;" d="M303.4,351.5c0-26.3,21.6-47.9,47.9-47.8c26,0,47.7,21.7,47.8,47.6c0.1,26-21.8,48.1-47.8,48.2
		C325.3,399.5,303.4,377.7,303.4,351.5z M351.2,383.3c17.6,0,31.8-14.3,31.7-31.9c-0.1-17.4-14.1-31.5-31.6-31.8
		c-17.1-0.3-32,14.5-32.2,31.9C319.1,368.8,333.7,383.3,351.2,383.3z"/>
	<path style="fill:#1D3D57;" d="M127.3,159.8c-17.3-0.2-31.6-14.6-31.6-31.9c0-17.4,14.8-32.1,32.1-31.9
		c17.5,0.1,31.8,14.7,31.7,32.2C159.4,145.8,144.9,160,127.3,159.8z M111.9,127.8c-0.1,8.9,6.9,16.1,15.7,16.2
		c8.7,0.1,16.1-7.3,16-16c0-8.6-7-15.7-15.7-15.8C119.1,112.1,112,118.9,111.9,127.8z"/>
</g>
</svg>
